<svg width="751" height="595" viewBox="0 0 751 595" fill="none" xmlns="http://www.w3.org/2000/svg">
<path d="M262.54 372.9L203.286 372.95L203.337 434.289L262.591 434.239L262.54 372.9Z" fill="#6C63FF"/>
<path d="M358.896 238.424L369.271 266.168L396.133 324.733C396.133 324.733 423.634 362.914 409.096 365.802C394.557 368.69 385.082 331.381 385.082 331.381L347.565 271.362L358.896 238.424Z" fill="#FFB8B8"/>
<path d="M337.456 176.699C349.892 176.688 359.965 166.244 359.954 153.37C359.944 140.497 349.854 130.069 337.418 130.08C324.982 130.09 314.909 140.535 314.92 153.408C314.93 166.281 325.02 176.709 337.456 176.699Z" fill="#FFB8B8"/>
<path d="M320.181 161.95C320.181 161.95 320.953 187.59 311.2 193.037C311.2 193.037 331.465 192.243 341.987 209.328L351.745 209.32C351.745 209.32 336.724 198.455 344.208 172.031L320.181 161.95Z" fill="#FFB8B8"/>
<path d="M428.537 489.747C428.537 489.747 381.26 501.441 347.472 487.484C313.684 473.527 309.939 482.854 277.667 486.766C245.396 490.678 264.145 472.791 264.145 472.791C264.145 472.791 318.815 325.118 327.059 309.572C335.302 294.025 331.541 283.927 331.541 283.927L315.76 261.408C315.76 261.408 312.059 251.598 308.071 240.203C303.452 226.983 298.455 211.626 298.451 207.034C298.447 201.999 303.892 197.138 308.371 194.003C310.221 192.698 312.148 191.513 314.14 190.455C323.828 187.868 345.736 204.663 345.736 204.663C345.736 204.663 351.745 209.32 367.517 220.961C383.288 232.603 376.553 256.695 376.553 256.695L381.109 319.627C411.158 350.681 428.537 489.747 428.537 489.747Z" fill="#2F2E41"/>
<path d="M320.212 200.023C320.212 200.023 306.688 183.717 296.207 216.36C285.726 249.002 283.496 274.644 283.496 274.644L264.037 342.258C264.037 342.258 243.051 378.794 258.815 381.112C274.579 383.429 279.048 342.245 279.048 342.245L317.99 234.989C317.99 234.989 330.73 210.892 320.212 200.023Z" fill="#FFB8B8"/>
<path d="M276.91 478.22L256.671 510.87C256.671 510.87 237.908 513.217 235.667 525.65C233.426 538.084 226.676 545.082 226.676 545.082L229.681 548.188L243.934 538.075L245.452 558.275C245.452 558.275 253.728 582.355 267.234 576.905C280.74 571.454 264.964 555.151 264.964 555.151L272.448 527.95L314.435 473.526L276.91 478.22Z" fill="#2F2E41"/>
<path d="M387.253 486.674L399.308 542.606C399.308 542.606 390.316 559.708 394.828 570.581C399.341 581.455 399.351 593.887 399.351 593.887L406.106 593.882L409.093 575.231L425.621 593.088C425.621 593.088 461.654 599.274 461.644 586.842C461.633 574.41 442.118 574.427 442.118 574.427L424.078 543.362L416.525 486.649L387.253 486.674Z" fill="#2F2E41"/>
<path d="M326.127 118.42L326.127 118.42C327.36 118.422 328.59 118.547 329.8 118.795C331.984 117.695 334.38 117.121 336.809 117.117L337.446 117.116C349.714 117.106 359.668 128.589 359.68 142.765L359.68 142.765L355.569 142.768L354.901 137.538L353.932 142.77L350.508 142.772C341.575 146.782 346.434 181.757 352.131 181.756L345.916 181.761L342.309 172.084L343.217 181.763L303.269 181.797L299.99 173L300.815 181.799L296.317 181.803L296.3 161.29C296.281 137.627 309.635 118.434 326.127 118.42Z" fill="#2F2E41"/>
<path d="M646.985 312.958L646.985 313.03L646.985 312.958L588.609 312.958C588.609 312.958 586.359 321.374 578.259 321.374C578.259 321.374 588.609 322.816 588.609 329.791L646.939 329.791C646.939 322.859 657.289 321.374 657.289 321.374C649.234 321.374 646.985 312.958 646.985 312.958Z" fill="#263238"/>
<path d="M642.897 315.307L592.712 315.307L592.712 327.442L642.897 327.442L642.897 315.307Z" fill="#455A64"/>
<path d="M636.149 320.769C636.149 320.985 627.926 321.144 617.804 321.144C607.682 321.144 599.445 320.985 599.445 320.769C599.445 320.553 607.667 320.394 617.804 320.394C627.942 320.394 636.149 320.639 636.149 320.769Z" fill="#FAFAFA"/>
<path d="M627.136 324.228C624.042 324.598 620.921 324.723 617.804 324.602C614.683 324.724 611.557 324.599 608.458 324.228C611.556 323.848 614.683 323.723 617.804 323.853C620.921 323.723 624.043 323.849 627.136 324.228Z" fill="#FAFAFA"/>
<path d="M740.378 0.374695L499.122 0.374695L499.122 297.034L740.378 297.034L740.378 0.374695Z" fill="#FF725E"/>
<g opacity="0.2">
<path opacity="0.2" d="M515.581 225.524C515.991 225.465 516.409 225.526 516.782 225.697C517.319 225.947 517.788 226.311 518.152 226.761C518.516 227.211 518.765 227.735 518.879 228.291C519.088 229.105 518.969 229.963 518.545 230.698C518.034 231.571 517.209 232.241 516.22 232.586C515.657 232.79 515.056 232.886 514.454 232.869C513.851 232.851 513.258 232.721 512.709 232.485C511.5 231.912 510.527 230.974 509.943 229.819C509.348 228.488 509.121 227.035 509.284 225.597C509.446 224.16 509.992 222.786 510.87 221.604C511.761 220.22 513.039 219.098 514.563 218.362C515.385 217.98 516.293 217.797 517.208 217.828C518.151 217.87 519.065 218.154 519.852 218.65C521.407 219.729 522.57 221.24 523.181 222.973C523.851 224.704 524.241 226.521 524.336 228.363C524.563 232.24 523.597 236.095 521.554 239.46C519.393 242.683 516.959 245.734 514.274 248.582C511.858 251.218 510 254.272 508.803 257.575C507.809 260.569 508.031 263.808 509.426 266.654C510.061 267.856 511.038 268.866 512.247 269.569C513.456 270.272 514.848 270.64 516.265 270.632C517.495 270.623 518.692 270.261 519.7 269.594C520.595 268.993 521.245 268.117 521.539 267.115C521.744 266.296 521.767 265.445 521.607 264.617C521.448 263.788 521.109 263 520.612 262.302C520.018 261.386 519.068 260.729 517.968 260.472C517.68 260.401 517.383 260.372 517.086 260.385L516.782 260.385L517.086 260.385C517.388 260.342 517.696 260.342 517.998 260.385C518.581 260.489 519.135 260.704 519.627 261.019C520.118 261.334 520.536 261.741 520.855 262.215C521.408 262.939 521.793 263.765 521.984 264.639C522.175 265.513 522.169 266.416 521.965 267.288C521.664 268.396 520.972 269.373 520.004 270.055C518.91 270.793 517.608 271.205 516.265 271.237C514.798 271.257 513.351 270.909 512.071 270.228C510.683 269.485 509.561 268.366 508.849 267.015C507.332 264.029 507.065 260.609 508.104 257.445C509.302 254.046 511.192 250.902 513.666 248.193C516.295 245.37 518.684 242.353 520.81 239.172C522.784 235.936 523.719 232.225 523.5 228.493C523.411 226.727 523.047 224.984 522.421 223.319C521.858 221.739 520.797 220.36 519.381 219.37C518.712 218.951 517.939 218.706 517.138 218.66C516.337 218.615 515.538 218.77 514.822 219.111C512.872 220.092 511.356 221.702 510.548 223.649C509.74 225.597 509.693 227.754 510.414 229.732C510.93 230.791 511.801 231.657 512.891 232.197C513.379 232.418 513.909 232.545 514.449 232.57C514.989 232.595 515.529 232.517 516.037 232.341C516.941 232.046 517.702 231.453 518.18 230.669C518.578 230.01 518.707 229.236 518.545 228.493C518.453 227.968 518.237 227.47 517.913 227.036C517.589 226.602 517.166 226.243 516.676 225.985C516.328 225.797 515.962 225.643 515.581 225.524Z" fill="black"/>
</g>
<g opacity="0.2">
<path opacity="0.2" d="M517.694 198.532C517.285 198.599 516.863 198.538 516.493 198.359C515.955 198.114 515.485 197.753 515.121 197.305C514.757 196.857 514.508 196.335 514.396 195.779C514.188 194.961 514.307 194.098 514.73 193.358C515.239 192.486 516.066 191.82 517.056 191.484C517.617 191.273 518.218 191.173 518.822 191.19C519.426 191.207 520.02 191.342 520.566 191.585C521.798 192.147 522.794 193.087 523.393 194.251C523.991 195.582 524.219 197.035 524.057 198.473C523.895 199.911 523.347 201.285 522.466 202.466C521.582 203.847 520.308 204.965 518.788 205.694C517.967 206.079 517.059 206.267 516.144 206.242C515.195 206.203 514.275 205.919 513.484 205.42C511.937 204.333 510.776 202.825 510.156 201.097C509.491 199.37 509.107 197.557 509.016 195.721C508.783 191.846 509.744 187.991 511.782 184.625C513.933 181.406 516.352 178.355 519.016 175.502C521.436 172.876 523.29 169.826 524.472 166.524C525.479 163.532 525.262 160.291 523.864 157.445C523.229 156.243 522.252 155.233 521.044 154.53C519.835 153.827 518.443 153.459 517.025 153.467C515.794 153.477 514.593 153.833 513.575 154.49C512.687 155.102 512.044 155.981 511.751 156.983C511.546 157.801 511.523 158.649 511.683 159.475C511.842 160.302 512.181 161.087 512.679 161.782C512.967 162.242 513.349 162.642 513.803 162.959C514.258 163.276 514.774 163.503 515.323 163.627C515.615 163.671 515.913 163.671 516.205 163.627C516.402 163.627 516.509 163.627 516.509 163.627L516.205 163.627C515.903 163.677 515.594 163.677 515.293 163.627C514.708 163.527 514.152 163.314 513.658 163.001C513.164 162.689 512.743 162.284 512.42 161.811C511.87 161.084 511.489 160.255 511.3 159.378C511.112 158.502 511.12 157.597 511.326 156.724C511.619 155.617 512.313 154.643 513.287 153.971C514.372 153.227 515.671 152.815 517.01 152.79C518.478 152.766 519.926 153.114 521.205 153.799C522.597 154.54 523.724 155.659 524.442 157.012C525.946 159.996 526.206 163.409 525.171 166.567C523.983 169.97 522.092 173.116 519.609 175.819C516.988 178.651 514.605 181.672 512.481 184.855C510.507 188.09 509.572 191.802 509.791 195.534C509.874 197.296 510.237 199.035 510.87 200.693C511.436 202.276 512.496 203.658 513.91 204.656C514.578 205.076 515.352 205.321 516.153 205.367C516.953 205.412 517.752 205.257 518.469 204.916C519.881 204.246 521.07 203.218 521.904 201.947C522.737 200.854 523.263 199.579 523.433 198.24C523.603 196.901 523.412 195.544 522.877 194.295C522.374 193.228 521.499 192.358 520.399 191.83C519.478 191.42 518.43 191.348 517.456 191.628C516.482 191.907 515.652 192.518 515.125 193.343C514.725 194.006 514.59 194.784 514.746 195.534C514.838 196.058 515.054 196.556 515.378 196.991C515.701 197.425 516.124 197.784 516.615 198.042C516.947 198.255 517.311 198.42 517.694 198.532V198.532Z" fill="black"/>
</g>
<path opacity="0.2" d="M516.63 213.822C517.981 213.822 519.077 212.783 519.077 211.502C519.077 210.22 517.981 209.182 516.63 209.182C515.279 209.182 514.183 210.22 514.183 211.502C514.183 212.783 515.279 213.822 516.63 213.822Z" fill="black"/>
<path opacity="0.2" d="M517.694 151.839C519.045 151.839 520.141 150.8 520.141 149.518C520.141 148.237 519.045 147.198 517.694 147.198C516.343 147.198 515.247 148.237 515.247 149.518C515.247 150.8 516.343 151.839 517.694 151.839Z" fill="black"/>
<g opacity="0.2">
<path opacity="0.2" d="M516.645 73.2676C517.039 73.2201 517.423 73.1181 517.785 72.9649C518.275 72.7035 518.698 72.3413 519.021 71.9049C519.345 71.4685 519.561 70.9689 519.654 70.4429C519.81 69.6932 519.675 68.9153 519.275 68.2524C518.794 67.4733 518.033 66.8848 517.132 66.5951C516.624 66.4158 516.084 66.3361 515.543 66.3609C515.002 66.3857 514.472 66.5144 513.986 66.7392C512.893 67.2774 512.025 68.1513 511.523 69.218C510.798 71.1977 510.843 73.3584 511.652 75.3091C512.46 77.2599 513.978 78.8719 515.931 79.8536C516.649 80.1923 517.449 80.3453 518.249 80.2973C519.05 80.2492 519.823 80.0017 520.49 79.5798C521.907 78.5847 522.968 77.2014 523.53 75.6166C524.162 73.9534 524.526 72.2092 524.609 70.4429C524.803 66.7167 523.853 63.0172 521.873 59.7929C519.749 56.6049 517.366 53.5789 514.745 50.7425C512.269 48.0292 510.379 44.8806 509.183 41.476C508.148 38.308 508.408 34.8866 509.912 31.8924C510.619 30.5332 511.742 29.408 513.134 28.6642C514.41 27.9735 515.86 27.6248 517.329 27.6555C518.674 27.6723 519.981 28.0853 521.068 28.8372C522.045 29.5113 522.74 30.4914 523.028 31.6042C523.234 32.4774 523.243 33.3819 523.054 34.2586C522.866 35.1352 522.484 35.9643 521.934 36.6914C521.613 37.1667 521.192 37.5745 520.698 37.8893C520.204 38.2041 519.647 38.4194 519.062 38.5217C518.76 38.5736 518.451 38.5736 518.15 38.5217C517.937 38.5217 517.846 38.5217 517.846 38.5217L518.15 38.5217C518.447 38.5358 518.744 38.5066 519.031 38.4352C519.58 38.3113 520.097 38.0842 520.551 37.7674C521.005 37.4505 521.388 37.0503 521.676 36.5905C522.173 35.8924 522.511 35.1043 522.671 34.2759C522.831 33.4474 522.807 32.5966 522.603 31.7771C522.31 30.7743 521.667 29.8953 520.779 29.284C519.78 28.5596 518.571 28.1423 517.314 28.0878C515.896 28.0851 514.505 28.459 513.299 29.167C512.093 29.8751 511.12 30.889 510.49 32.0942C509.094 34.9514 508.877 38.2009 509.882 41.2022C511.068 44.5073 512.921 47.5618 515.338 50.1949C518.002 53.0581 520.422 56.1182 522.573 59.3462C524.612 62.7168 525.574 66.5775 525.339 70.4573C525.247 72.2982 524.863 74.1153 524.199 75.8472C523.584 77.5783 522.422 79.0879 520.87 80.1706C520.084 80.6666 519.17 80.9506 518.226 80.9921C517.311 81.0251 516.403 80.8418 515.581 80.4589C514.054 79.7279 512.774 78.6043 511.888 77.2163C511.009 76.0327 510.461 74.6566 510.296 73.2172C510.131 71.7779 510.355 70.3224 510.946 68.9874C511.519 67.8213 512.495 66.8756 513.712 66.3069C514.26 66.0685 514.853 65.9355 515.455 65.9157C516.058 65.8959 516.659 65.9897 517.223 66.1916C518.212 66.5361 519.037 67.2061 519.548 68.0795C519.972 68.8194 520.091 69.6821 519.882 70.5006C519.776 71.06 519.53 71.5871 519.165 72.0383C518.8 72.4894 518.327 72.8516 517.785 73.0946C517.433 73.2621 517.035 73.3225 516.645 73.2676V73.2676Z" fill="black"/>
</g>
<g opacity="0.2">
<path opacity="0.2" d="M517.314 100.332C516.929 100.403 516.552 100.509 516.189 100.649C515.697 100.908 515.273 101.27 514.949 101.707C514.625 102.143 514.41 102.644 514.32 103.171C514.159 103.915 514.289 104.688 514.685 105.347C515.209 106.179 516.041 106.795 517.019 107.078C517.996 107.36 519.049 107.288 519.974 106.875C521.071 106.338 521.944 105.464 522.451 104.396C522.987 103.144 523.177 101.783 523.004 100.441C522.831 99.1001 522.301 97.8225 521.463 96.7294C520.634 95.451 519.444 94.4178 518.028 93.7462C517.31 93.4075 516.51 93.2545 515.71 93.3025C514.909 93.3506 514.136 93.5981 513.469 94.02C512.055 95.0241 510.995 96.4109 510.429 97.9976C509.802 99.6623 509.439 101.406 509.35 103.171C509.145 106.911 510.079 110.628 512.04 113.879C514.173 117.065 516.561 120.091 519.183 122.929C521.66 125.643 523.55 128.791 524.746 132.196C525.781 135.364 525.521 138.785 524.016 141.779C523.3 143.137 522.173 144.26 520.779 145.008C519.5 145.692 518.052 146.04 516.584 146.016C515.241 145.988 513.938 145.577 512.846 144.835C511.878 144.152 511.186 143.175 510.885 142.068C510.682 141.193 510.675 140.288 510.867 139.412C511.058 138.535 511.442 137.706 511.995 136.98C512.313 136.506 512.731 136.099 513.223 135.784C513.714 135.469 514.269 135.253 514.852 135.15C515.159 135.1 515.472 135.1 515.779 135.15L516.083 135.15C515.977 135.169 515.869 135.169 515.764 135.15C515.472 135.106 515.174 135.106 514.882 135.15C513.78 135.414 512.831 136.076 512.238 136.995C511.74 137.695 511.401 138.486 511.244 139.317C511.087 140.149 511.115 141.002 511.326 141.823C511.608 142.826 512.254 143.704 513.15 144.301C514.162 144.971 515.365 145.333 516.6 145.339C518.019 145.346 519.412 144.975 520.621 144.27C521.83 143.564 522.806 142.552 523.439 141.347C524.828 138.488 525.045 135.241 524.047 132.239C522.846 128.933 520.989 125.876 518.575 123.232C515.913 120.376 513.499 117.32 511.356 114.095C509.312 110.726 508.346 106.865 508.575 102.984C508.678 101.143 509.068 99.327 509.73 97.594C510.341 95.8648 511.497 94.3555 513.043 93.2706C513.836 92.7741 514.754 92.4857 515.703 92.4348C516.618 92.4172 517.524 92.6048 518.347 92.9824C519.871 93.7184 521.15 94.8409 522.041 96.225C522.919 97.4093 523.465 98.7861 523.627 100.226C523.789 101.665 523.562 103.12 522.968 104.454C522.396 105.616 521.427 106.561 520.217 107.134C519.667 107.378 519.071 107.513 518.465 107.53C517.858 107.547 517.255 107.447 516.691 107.235C515.701 106.898 514.878 106.226 514.381 105.347C513.96 104.612 513.836 103.757 514.031 102.941C514.146 102.382 514.395 101.857 514.759 101.404C515.122 100.952 515.591 100.585 516.129 100.332C516.515 100.222 516.927 100.222 517.314 100.332Z" fill="black"/>
</g>
<path opacity="0.2" d="M517.694 89.6678C519.045 89.6678 520.141 88.6225 520.141 87.3331C520.141 86.0438 519.045 84.9985 517.694 84.9985C516.343 84.9985 515.247 86.0438 515.247 87.3331C515.247 88.6225 516.343 89.6678 517.694 89.6678Z" fill="black"/>
<g opacity="0.2">
<path opacity="0.2" d="M722.247 73.0803C722.247 73.0803 722.14 73.0803 721.927 73.0803C721.624 73.0539 721.33 72.9706 721.061 72.8353C720.555 72.5427 720.124 72.1461 719.8 71.6747C719.477 71.2033 719.269 70.6692 719.192 70.1115C719.025 69.3023 719.137 68.4636 719.511 67.7192C719.954 66.8193 720.742 66.1134 721.715 65.7449C722.272 65.5252 722.878 65.4379 723.479 65.4906C724.08 65.5434 724.659 65.7345 725.165 66.0475C726.269 66.7366 727.107 67.7485 727.551 68.9298C728.018 70.2856 728.168 71.7218 727.989 73.1381C727.811 74.5544 727.308 75.9167 726.517 77.1299C725.72 78.5518 724.499 79.7196 723.006 80.4877C722.186 80.883 721.259 81.0337 720.347 80.9201C719.411 80.7767 718.543 80.37 717.854 79.7528C716.524 78.4931 715.57 76.9218 715.088 75.1988C714.55 73.4552 714.249 71.6536 714.192 69.8377C714.028 66.0067 714.89 62.1988 716.699 58.7697C718.626 55.4677 720.827 52.3161 723.28 49.3447C725.508 46.6007 727.201 43.5017 728.28 40.1934C729.194 37.1999 729.099 34.0104 728.007 31.071C727.51 29.7637 726.642 28.6117 725.499 27.742C724.441 26.9582 723.148 26.514 721.806 26.4738C720.655 26.4175 719.519 26.7457 718.597 27.4014C717.675 28.0571 717.025 28.9987 716.76 30.0622C716.381 31.7116 716.639 33.4355 717.489 34.9189C717.726 35.3991 718.064 35.8283 718.482 36.1802C718.901 36.5321 719.39 36.7992 719.921 36.9653L720.408 37.0661L720.787 37.0661C720.985 37.0661 721.091 37.0661 721.091 37.0661C720.991 37.0801 720.888 37.0801 720.787 37.0661L720.408 37.0661L719.876 36.9941C719.306 36.852 718.775 36.5959 718.319 36.2429C717.863 35.8899 717.492 35.4482 717.231 34.9477C716.277 33.4109 715.957 31.5932 716.334 29.846C716.582 28.7246 717.212 27.7117 718.128 26.9638C719.169 26.1609 720.479 25.7368 721.821 25.7676C723.29 25.7904 724.713 26.2602 725.879 27.1079C727.147 28.1247 728.08 29.4652 728.569 30.9701C729.744 34.03 729.872 37.3634 728.934 40.4961C727.85 43.8931 726.136 47.0798 723.873 49.9067C721.446 52.8457 719.271 55.9636 717.368 59.2309C715.608 62.5458 714.766 66.2304 714.921 69.9386C714.972 71.6941 715.253 73.4369 715.757 75.1267C716.191 76.7529 717.066 78.2433 718.295 79.4501C718.878 79.9778 719.613 80.329 720.408 80.4589C721.178 80.5564 721.962 80.4308 722.657 80.0986C724.034 79.3915 725.164 78.32 725.909 77.0146C726.66 75.8799 727.144 74.6056 727.331 73.2779C727.517 71.9502 727.4 70.6001 726.988 69.3189C726.601 68.2243 725.855 67.2753 724.861 66.6095C724.421 66.3233 723.913 66.1445 723.383 66.0892C722.852 66.0339 722.316 66.1037 721.821 66.2925C720.934 66.6092 720.207 67.2322 719.784 68.0363C719.43 68.7141 719.308 69.4799 719.435 70.2268C719.493 70.7522 719.67 71.2596 719.953 71.7146C720.237 72.1696 720.619 72.5616 721.076 72.8641C721.448 73.0056 721.846 73.0789 722.247 73.0803Z" fill="black"/>
</g>
<g opacity="0.2">
<path opacity="0.2" d="M720.848 100.318C721.258 100.259 721.676 100.32 722.049 100.491C722.587 100.739 723.057 101.102 723.421 101.552C723.785 102.003 724.034 102.527 724.146 103.085C724.355 103.898 724.236 104.757 723.812 105.492C723.259 106.447 722.346 107.17 721.256 107.515C720.165 107.86 718.977 107.801 717.93 107.351C716.717 106.784 715.742 105.844 715.164 104.684C714.57 103.353 714.343 101.901 714.505 100.463C714.667 99.0259 715.213 97.6516 716.091 96.47C716.982 95.0859 718.261 93.9634 719.784 93.2274C720.609 92.8543 721.515 92.6716 722.429 92.6942C723.373 92.7357 724.287 93.0196 725.073 93.5156C726.628 94.595 727.791 96.1057 728.402 97.839C729.073 99.5698 729.462 101.387 729.557 103.229C729.784 107.105 728.818 110.961 726.776 114.326C724.633 117.542 722.219 120.588 719.556 123.434C717.14 126.07 715.282 129.123 714.085 132.426C713.091 135.421 713.313 138.659 714.708 141.506C715.343 142.708 716.321 143.717 717.529 144.42C718.738 145.123 720.13 145.491 721.547 145.483C722.777 145.475 723.974 145.113 724.982 144.446C725.877 143.844 726.527 142.969 726.821 141.967C727.026 141.147 727.049 140.296 726.889 139.468C726.73 138.64 726.391 137.851 725.894 137.153C725.3 136.238 724.35 135.58 723.25 135.323C722.961 135.26 722.665 135.231 722.368 135.237L722.064 135.237L722.368 135.237C722.67 135.193 722.978 135.193 723.28 135.237C723.864 135.344 724.419 135.561 724.912 135.875C725.406 136.19 725.827 136.595 726.152 137.067C726.703 137.791 727.085 138.618 727.273 139.492C727.462 140.366 727.453 141.269 727.247 142.14C726.946 143.248 726.254 144.224 725.286 144.907C724.192 145.645 722.89 146.056 721.547 146.088C720.085 146.11 718.642 145.762 717.368 145.08C715.972 144.342 714.844 143.222 714.131 141.866C712.614 138.881 712.347 135.461 713.386 132.297C714.586 128.902 716.475 125.764 718.949 123.059C721.574 120.228 723.962 117.207 726.092 114.023C728.066 110.788 729.001 107.076 728.782 103.344C728.693 101.579 728.329 99.8352 727.703 98.1705C727.14 96.5901 726.079 95.2117 724.663 94.2218C723.994 93.8021 723.221 93.5572 722.42 93.5117C721.62 93.4661 720.82 93.6216 720.104 93.9624C718.155 94.9438 716.64 96.5542 715.835 98.5023C715.029 100.45 714.985 102.608 715.711 104.584C716.217 105.644 717.085 106.512 718.173 107.048C719.098 107.461 720.151 107.533 721.128 107.251C722.106 106.968 722.938 106.352 723.462 105.52C723.86 104.861 723.989 104.087 723.827 103.344C723.734 102.822 723.52 102.325 723.199 101.892C722.878 101.458 722.459 101.097 721.973 100.837C721.619 100.626 721.242 100.452 720.848 100.318V100.318Z" fill="black"/>
</g>
<path opacity="0.2" d="M721.912 89.6822C723.264 89.6822 724.359 88.6434 724.359 87.362C724.359 86.0805 723.264 85.0417 721.912 85.0417C720.561 85.0417 719.465 86.0805 719.465 87.362C719.465 88.6434 720.561 89.6822 721.912 89.6822Z" fill="black"/>
<path opacity="0.2" d="M720.833 151.666C722.184 151.666 723.28 150.627 723.28 149.345C723.28 148.064 722.184 147.025 720.833 147.025C719.482 147.025 718.386 148.064 718.386 149.345C718.386 150.627 719.482 151.666 720.833 151.666Z" fill="black"/>
<g opacity="0.2">
<path opacity="0.2" d="M721.897 225.524C721.506 225.591 721.124 225.697 720.757 225.841C720.267 226.103 719.844 226.465 719.521 226.901C719.197 227.338 718.981 227.837 718.888 228.363C718.727 229.106 718.856 229.88 719.252 230.539C719.734 231.327 720.501 231.921 721.411 232.211C721.918 232.39 722.458 232.47 722.999 232.445C723.54 232.42 724.07 232.292 724.557 232.067C725.649 231.529 726.518 230.655 727.019 229.588C727.741 227.608 727.694 225.449 726.886 223.499C726.078 221.549 724.562 219.936 722.611 218.952C721.894 218.612 721.095 218.456 720.295 218.502C719.494 218.547 718.721 218.792 718.052 219.212C716.634 220.213 715.574 221.601 715.012 223.189C714.385 224.854 714.022 226.598 713.933 228.363C713.728 232.103 714.662 235.82 716.623 239.071C718.756 242.257 721.144 245.282 723.766 248.121C726.243 250.835 728.133 253.983 729.329 257.388C730.364 260.556 730.103 263.977 728.599 266.971C727.884 268.324 726.763 269.447 725.377 270.199C724.093 270.882 722.64 271.23 721.167 271.208C719.823 271.187 718.518 270.774 717.429 270.027C716.46 269.347 715.772 268.369 715.483 267.26C715.278 266.386 715.269 265.482 715.458 264.605C715.646 263.728 716.028 262.899 716.578 262.172C716.903 261.706 717.326 261.309 717.82 261.004C718.314 260.699 718.869 260.494 719.45 260.4C719.751 260.341 720.061 260.341 720.362 260.4L720.666 260.4C720.666 260.4 720.559 260.4 720.347 260.4C720.056 260.38 719.763 260.404 719.48 260.472C718.375 260.736 717.421 261.398 716.821 262.316C716.327 263.018 715.991 263.81 715.834 264.64C715.677 265.471 715.703 266.323 715.909 267.144C716.191 268.148 716.837 269.025 717.733 269.623C718.745 270.293 719.948 270.655 721.183 270.661C722.602 270.667 723.995 270.297 725.204 269.591C726.413 268.886 727.389 267.873 728.022 266.669C729.411 263.81 729.628 260.563 728.63 257.561C727.429 254.255 725.572 251.197 723.158 248.554C720.5 245.694 718.086 242.639 715.939 239.417C713.903 236.044 712.937 232.186 713.158 228.305C713.261 226.465 713.65 224.649 714.313 222.916C714.924 221.186 716.08 219.677 717.626 218.592C718.419 218.096 719.337 217.807 720.286 217.756C721.201 217.737 722.107 217.925 722.93 218.304C724.458 219.035 725.738 220.159 726.624 221.547C727.504 222.73 728.052 224.107 728.214 225.547C728.376 226.987 728.148 228.443 727.551 229.775C726.983 230.941 726.013 231.886 724.8 232.456C724.253 232.699 723.659 232.834 723.055 232.851C722.452 232.868 721.85 232.768 721.289 232.557C720.292 232.225 719.463 231.552 718.964 230.669C718.543 229.934 718.419 229.078 718.614 228.262C718.729 227.704 718.978 227.178 719.342 226.726C719.705 226.273 720.174 225.907 720.711 225.654C721.085 225.503 721.497 225.458 721.897 225.524Z" fill="black"/>
</g>
<g opacity="0.2">
<path opacity="0.2" d="M721.152 198.517C721.546 198.47 721.93 198.368 722.292 198.215C722.782 197.953 723.205 197.591 723.528 197.154C723.852 196.718 724.068 196.219 724.161 195.693C724.317 194.943 724.182 194.165 723.781 193.502C723.252 192.676 722.419 192.064 721.443 191.785C720.466 191.505 719.416 191.578 718.492 191.989C717.4 192.527 716.532 193.401 716.03 194.468C715.495 195.719 715.304 197.079 715.474 198.42C715.644 199.761 716.17 201.039 717.003 202.134C717.837 203.406 719.026 204.434 720.438 205.103C721.155 205.444 721.954 205.599 722.754 205.554C723.555 205.508 724.329 205.263 724.997 204.844C726.411 203.84 727.471 202.453 728.037 200.866C728.678 199.205 729.042 197.46 729.116 195.693C729.336 191.951 728.401 188.23 726.426 184.985C724.298 181.799 721.915 178.773 719.298 175.934C716.823 173.22 714.933 170.072 713.735 166.668C712.7 163.5 712.961 160.079 714.465 157.084C715.172 155.725 716.295 154.6 717.687 153.856C718.963 153.167 720.413 152.818 721.882 152.847C723.227 152.864 724.533 153.277 725.62 154.029C726.598 154.703 727.292 155.683 727.581 156.796C727.787 157.669 727.795 158.574 727.607 159.451C727.418 160.327 727.036 161.156 726.487 161.883C726.166 162.359 725.745 162.766 725.251 163.081C724.757 163.396 724.2 163.611 723.614 163.714C723.313 163.765 723.004 163.765 722.702 163.714C722.505 163.714 722.398 163.714 722.398 163.714L722.702 163.714C722.998 163.727 723.295 163.702 723.584 163.642C724.132 163.511 724.647 163.28 725.101 162.961C725.555 162.642 725.938 162.242 726.228 161.782C726.725 161.084 727.064 160.296 727.224 159.468C727.383 158.639 727.36 157.789 727.155 156.969C726.858 155.968 726.216 155.09 725.332 154.476C724.319 153.806 723.116 153.444 721.882 153.438C720.461 153.433 719.067 153.805 717.858 154.514C716.649 155.222 715.673 156.237 715.043 157.445C713.646 160.302 713.429 163.551 714.435 166.553C715.62 169.861 717.479 172.917 719.906 175.545C722.56 178.412 724.974 181.472 727.125 184.697C729.165 188.067 730.126 191.928 729.891 195.808C729.801 197.649 729.417 199.466 728.751 201.198C728.136 202.925 726.98 204.433 725.438 205.521C724.645 206.016 723.726 206.299 722.778 206.343C721.864 206.376 720.955 206.192 720.134 205.809C718.581 205.056 717.289 203.895 716.41 202.466C715.53 201.283 714.982 199.906 714.82 198.466C714.658 197.025 714.886 195.57 715.483 194.237C716.045 193.068 717.018 192.121 718.234 191.556C718.782 191.318 719.375 191.185 719.977 191.165C720.58 191.146 721.181 191.239 721.745 191.441C722.739 191.778 723.567 192.45 724.07 193.329C724.49 194.07 724.614 194.93 724.42 195.75C724.308 196.31 724.058 196.836 723.691 197.287C723.324 197.738 722.85 198.1 722.307 198.344C721.951 198.515 721.547 198.575 721.152 198.517V198.517Z" fill="black"/>
</g>
<path opacity="0.2" d="M720.833 213.851C722.184 213.851 723.28 212.806 723.28 211.516C723.28 210.227 722.184 209.182 720.833 209.182C719.482 209.182 718.386 210.227 718.386 211.516C718.386 212.806 719.482 213.851 720.833 213.851Z" fill="black"/>
<g opacity="0.2">
<path opacity="0.2" d="M601.436 17.1496C601.362 16.7846 601.25 16.4274 601.102 16.0831C600.826 15.6182 600.444 15.2177 599.984 14.9109C599.523 14.6042 598.997 14.3991 598.442 14.3105C597.658 14.158 596.842 14.2809 596.147 14.6564C595.27 15.1539 594.62 15.9427 594.322 16.8696C594.024 17.7964 594.101 18.7951 594.536 19.6716C595.103 20.7119 596.024 21.5398 597.15 22.0206C598.472 22.5218 599.906 22.6987 601.319 22.535C602.733 22.3713 604.08 21.8722 605.236 21.0839C606.583 20.3007 607.668 19.1714 608.366 17.8269C608.726 17.1471 608.89 16.3894 608.842 15.6304C608.794 14.8713 608.535 14.1376 608.093 13.5035C607.034 12.1628 605.571 11.1579 603.898 10.6212C602.143 10.0269 600.304 9.68214 598.442 9.59798C594.498 9.4039 590.578 10.2894 587.15 12.1488C583.79 14.1714 580.599 16.4358 577.605 18.9222C574.744 21.2706 571.423 23.0628 567.833 24.1967C564.492 25.1782 560.884 24.9313 557.726 23.505C556.298 22.821 555.114 21.7534 554.322 20.4354C553.6 19.2229 553.233 17.8498 553.258 16.4578C553.278 15.1825 553.713 13.9442 554.504 12.9126C555.224 11.9947 556.254 11.3385 557.422 11.0535C558.343 10.8623 559.296 10.8558 560.22 11.0345C561.144 11.2132 562.018 11.5731 562.787 12.0912C563.286 12.3976 563.715 12.797 564.047 13.2652C564.379 13.7334 564.607 14.2606 564.717 14.8149C564.779 15.105 564.779 15.404 564.717 15.694C564.726 15.7899 564.726 15.8864 564.717 15.9822C564.698 15.8822 564.698 15.7796 564.717 15.6796C564.763 15.4027 564.763 15.1206 564.717 14.8437C564.433 13.8015 563.737 12.9033 562.772 12.3362C562.033 11.8648 561.199 11.5444 560.322 11.3956C559.446 11.2467 558.546 11.2725 557.68 11.4715C556.62 11.7427 555.691 12.3538 555.051 13.2008C554.35 14.1623 553.974 15.3032 553.972 16.4722C553.965 17.8182 554.356 19.139 555.1 20.2852C555.844 21.4314 556.912 22.3571 558.182 22.9574C561.197 24.2745 564.621 24.4799 567.787 23.5338C571.271 22.3987 574.491 20.6371 577.271 18.3457C580.291 15.8241 583.518 13.535 586.922 11.5003C590.475 9.56173 594.546 8.6454 598.64 8.86301C600.581 8.96095 602.496 9.33001 604.324 9.95827C606.147 10.5374 607.739 11.6342 608.883 13.1C609.407 13.852 609.711 14.7222 609.765 15.622C609.783 16.4893 609.585 17.3485 609.187 18.1295C608.411 19.5744 607.227 20.7867 605.768 21.6315C604.518 22.4642 603.067 22.9818 601.548 23.1356C600.03 23.2894 598.496 23.0743 597.089 22.5106C595.868 21.9632 594.873 21.0454 594.262 19.9021C594.009 19.3804 593.868 18.8161 593.847 18.242C593.826 17.668 593.926 17.0957 594.141 16.5587C594.506 15.6214 595.22 14.8426 596.147 14.3682C596.92 13.9625 597.825 13.8443 598.685 14.0367C599.274 14.1456 599.828 14.3817 600.305 14.7266C600.782 15.0715 601.169 15.5159 601.436 16.0255C601.553 16.392 601.553 16.783 601.436 17.1496V17.1496Z" fill="black"/>
</g>
<g opacity="0.2">
<path opacity="0.2" d="M670.071 16.4578C670.133 16.8461 670.069 17.243 669.889 17.5963C669.629 18.1082 669.247 18.5549 668.771 18.9004C668.296 19.2459 667.742 19.4805 667.153 19.5851C666.29 19.7827 665.38 19.6698 664.6 19.268C663.679 18.7832 662.972 18.0007 662.609 17.0631C662.396 16.5281 662.297 15.9585 662.318 15.387C662.339 14.8156 662.479 14.2538 662.73 13.7341C663.328 12.5838 664.319 11.6593 665.542 11.1112C667.777 10.3173 670.241 10.3177 672.476 11.1125C674.711 11.9073 676.567 13.4426 677.701 15.4346C678.109 16.2122 678.308 17.0739 678.278 17.9422C678.229 18.8383 677.924 19.705 677.397 20.4498C676.252 21.9182 674.661 23.0195 672.837 23.6059C671.01 24.2344 669.094 24.5987 667.153 24.6867C663.057 24.9032 658.983 23.9923 655.42 22.0638C652.021 20.0242 648.798 17.7303 645.784 15.204C643.004 12.9084 639.777 11.1508 636.285 10.0303C633.125 9.07668 629.703 9.2824 626.695 10.6068C625.424 11.204 624.355 12.1265 623.608 13.2701C622.862 14.4136 622.468 15.7325 622.47 17.0775C622.479 18.2521 622.86 19.397 623.565 20.3633C624.207 21.2078 625.135 21.8182 626.194 22.0927C627.058 22.2866 627.955 22.3086 628.829 22.1572C629.703 22.0059 630.534 21.6846 631.27 21.2136C631.755 20.9405 632.177 20.5778 632.511 20.147C632.845 19.7162 633.085 19.2262 633.215 18.706C633.283 18.4322 633.314 18.1513 633.307 17.8701C633.29 17.7747 633.29 17.6774 633.307 17.5819C633.307 17.5819 633.307 17.6684 633.307 17.8701C633.352 18.1567 633.352 18.4482 633.307 18.7348C633.195 19.2888 632.967 19.8157 632.635 20.2838C632.304 20.7519 631.875 21.1515 631.376 21.4586C630.607 21.9802 629.73 22.3422 628.803 22.521C627.876 22.6998 626.92 22.6913 625.996 22.4962C624.829 22.2101 623.799 21.5542 623.078 20.6371C622.292 19.6034 621.857 18.3665 621.832 17.0919C621.805 15.6979 622.178 14.323 622.911 13.1144C623.695 11.7941 624.882 10.7292 626.315 10.0591C629.466 8.62679 633.072 8.37962 636.407 9.36741C640.001 10.4978 643.326 12.2848 646.195 14.6276C649.179 17.1251 652.371 19.3902 655.739 21.4009C659.161 23.2751 663.086 24.1616 667.031 23.9517C668.894 23.8732 670.734 23.5282 672.488 22.9285C674.157 22.3917 675.614 21.3865 676.667 20.0462C677.112 19.4134 677.373 18.6804 677.424 17.9213C677.474 17.1622 677.313 16.4039 676.956 15.7228C675.918 13.8694 674.216 12.4284 672.157 11.6595C670.098 10.8906 667.816 10.8444 665.724 11.5291C664.605 12.0145 663.69 12.8416 663.126 13.8782C662.675 14.7435 662.581 15.7371 662.862 16.6645C663.143 17.592 663.779 18.3867 664.645 18.8933C665.344 19.2763 666.167 19.3995 666.955 19.2392C667.51 19.1542 668.036 18.9521 668.497 18.6477C668.957 18.3433 669.339 17.9446 669.615 17.481C669.818 17.1627 669.972 16.818 670.071 16.4578Z" fill="black"/>
</g>
<path opacity="0.2" d="M616.269 13.8349C615.781 13.8321 615.303 13.967 614.896 14.2224C614.489 14.4778 614.171 14.8423 613.982 15.2695C613.794 15.6967 613.744 16.1673 613.839 16.6215C613.933 17.0757 614.168 17.493 614.513 17.8204C614.859 18.1477 615.299 18.3704 615.778 18.46C616.257 18.5496 616.753 18.5022 617.203 18.3237C617.654 18.1452 618.038 17.8437 618.308 17.4576C618.577 17.0715 618.719 16.6181 618.716 16.1552C618.716 15.5398 618.459 14.9496 618 14.5145C617.541 14.0794 616.918 13.8349 616.269 13.8349V13.8349Z" fill="black"/>
<path opacity="0.2" d="M694.023 13.8349C693.535 13.8321 693.057 13.967 692.65 14.2224C692.243 14.4778 691.925 14.8423 691.736 15.2695C691.548 15.6967 691.498 16.1673 691.593 16.6215C691.687 17.0757 691.922 17.493 692.267 17.8204C692.613 18.1477 693.053 18.3704 693.532 18.46C694.011 18.5496 694.507 18.5022 694.957 18.3237C695.408 18.1452 695.792 17.8437 696.062 17.4576C696.331 17.0715 696.473 16.6181 696.47 16.1552C696.47 15.8505 696.407 15.5488 696.284 15.2673C696.161 14.9858 695.981 14.73 695.754 14.5145C695.526 14.2991 695.257 14.1282 694.96 14.0116C694.663 13.895 694.345 13.8349 694.023 13.8349V13.8349Z" fill="black"/>
<path opacity="0.2" d="M542.361 13.8349C541.873 13.835 541.396 13.9722 540.991 14.2294C540.586 14.4866 540.27 14.8521 540.084 15.2795C539.899 15.707 539.851 16.1771 539.947 16.6304C540.043 17.0836 540.279 17.4996 540.625 17.8255C540.971 18.1514 541.411 18.3727 541.89 18.4611C542.368 18.5496 542.864 18.5013 543.313 18.3223C543.763 18.1434 544.146 17.842 544.415 17.4561C544.684 17.0703 544.826 16.6175 544.823 16.1552C544.823 15.8493 544.759 15.5464 544.635 15.2639C544.511 14.9815 544.329 14.7251 544.101 14.5094C543.872 14.2938 543.6 14.1232 543.302 14.0074C543.003 13.8917 542.683 13.833 542.361 13.8349V13.8349Z" fill="black"/>
<g opacity="0.2">
<path opacity="0.2" d="M603.001 280.475C602.948 280.107 602.841 279.748 602.682 279.408C602.405 278.945 602.022 278.545 601.562 278.239C601.103 277.932 600.577 277.726 600.023 277.636C599.234 277.484 598.413 277.606 597.712 277.982C596.833 278.477 596.181 279.267 595.886 280.195C595.591 281.123 595.673 282.123 596.117 282.997C596.677 284.037 597.593 284.865 598.716 285.346C600.817 286.05 603.116 286.014 605.192 285.244C607.268 284.474 608.983 283.022 610.023 281.152C610.38 280.471 610.542 279.713 610.491 278.954C610.44 278.195 610.179 277.462 609.734 276.829C608.681 275.488 607.224 274.483 605.555 273.946C603.799 273.354 601.96 273.009 600.099 272.923C596.154 272.728 592.234 273.613 588.806 275.474C585.441 277.49 582.25 279.754 579.262 282.247C576.394 284.594 573.069 286.386 569.474 287.522C566.133 288.502 562.525 288.255 559.367 286.83C557.997 286.175 556.851 285.166 556.06 283.919C555.269 282.672 554.867 281.238 554.899 279.783C554.927 278.509 555.361 277.273 556.145 276.238C556.87 275.325 557.898 274.67 559.063 274.379C559.988 274.187 560.945 274.181 561.872 274.362C562.798 274.543 563.675 274.908 564.444 275.431C564.942 275.733 565.37 276.13 565.699 276.596C566.029 277.062 566.253 277.588 566.359 278.14C566.412 278.431 566.412 278.728 566.359 279.019C566.373 279.115 566.373 279.212 566.359 279.308C566.344 279.207 566.344 279.105 566.359 279.005C566.365 278.724 566.334 278.443 566.267 278.169C566.133 277.65 565.892 277.162 565.558 276.732C565.224 276.301 564.804 275.938 564.322 275.661C563.586 275.19 562.755 274.869 561.88 274.72C561.006 274.571 560.109 274.597 559.246 274.797C558.181 275.06 557.25 275.673 556.617 276.526C555.91 277.486 555.528 278.627 555.522 279.797C555.517 281.145 555.91 282.467 556.656 283.613C557.403 284.76 558.474 285.684 559.747 286.283C562.757 287.6 566.177 287.806 569.337 286.859C572.827 285.727 576.053 283.965 578.836 281.671C581.851 279.149 585.073 276.86 588.472 274.826C592.033 272.892 596.108 271.976 600.205 272.188C602.146 272.288 604.061 272.657 605.889 273.284C607.712 273.864 609.303 274.961 610.449 276.425C610.972 277.177 611.276 278.047 611.33 278.947C611.356 279.815 611.158 280.676 610.752 281.455C609.982 282.903 608.797 284.117 607.333 284.957C606.084 285.789 604.632 286.307 603.114 286.461C601.596 286.615 600.061 286.4 598.655 285.836C597.439 285.286 596.45 284.368 595.843 283.227C595.585 282.707 595.44 282.142 595.42 281.568C595.399 280.993 595.501 280.42 595.721 279.884C596.082 278.948 596.79 278.17 597.712 277.693C598.491 277.288 599.401 277.17 600.266 277.362C600.852 277.473 601.403 277.71 601.877 278.055C602.352 278.399 602.736 278.843 603.001 279.351C603.118 279.717 603.118 280.108 603.001 280.475V280.475Z" fill="black"/>
</g>
<g opacity="0.2">
<path opacity="0.2" d="M671.637 279.783C671.71 280.17 671.651 280.569 671.469 280.922C671.205 281.432 670.818 281.878 670.341 282.223C669.863 282.568 669.308 282.804 668.718 282.91C667.86 283.108 666.955 282.995 666.18 282.593C665.255 282.109 664.544 281.327 664.174 280.388C663.961 279.853 663.862 279.284 663.883 278.712C663.904 278.141 664.044 277.579 664.296 277.059C664.903 275.911 665.898 274.988 667.123 274.436C668.531 273.876 670.065 273.664 671.583 273.82C673.101 273.977 674.553 274.496 675.801 275.33C677.265 276.17 678.45 277.384 679.22 278.832C679.622 279.612 679.82 280.472 679.798 281.34C679.742 282.234 679.437 283.099 678.916 283.847C677.777 285.321 676.184 286.424 674.357 287.003C672.531 287.634 670.614 287.999 668.673 288.084C664.581 288.307 660.51 287.395 656.955 285.461C653.551 283.422 650.324 281.128 647.304 278.601C644.527 276.309 641.306 274.552 637.821 273.428C634.655 272.474 631.228 272.68 628.215 274.004C626.947 274.603 625.881 275.527 625.137 276.67C624.393 277.814 624.001 279.131 624.005 280.475C624.004 281.649 624.38 282.795 625.084 283.761C625.733 284.599 626.658 285.208 627.714 285.49C628.583 285.685 629.485 285.708 630.364 285.557C631.243 285.406 632.079 285.084 632.82 284.611C633.791 284.049 634.489 283.149 634.766 282.103C634.812 281.826 634.812 281.544 634.766 281.267C634.766 281.08 634.766 280.979 634.766 280.979C634.777 281.075 634.777 281.172 634.766 281.267C634.828 281.553 634.828 281.847 634.766 282.132C634.658 282.687 634.431 283.215 634.099 283.684C633.767 284.153 633.337 284.551 632.835 284.856C632.069 285.377 631.194 285.739 630.27 285.918C629.345 286.097 628.391 286.088 627.471 285.894C626.299 285.615 625.267 284.958 624.552 284.034C623.76 283.004 623.324 281.765 623.306 280.489C623.281 279.097 623.649 277.724 624.37 276.512C625.159 275.195 626.344 274.131 627.774 273.456C630.93 272.023 634.541 271.776 637.881 272.765C641.475 273.891 644.797 275.684 647.654 278.039C650.648 280.521 653.839 282.781 657.198 284.798C660.621 286.671 664.545 287.557 668.49 287.349C670.353 287.272 672.193 286.927 673.947 286.326C675.62 285.789 677.082 284.784 678.141 283.444C678.584 282.809 678.842 282.076 678.89 281.317C678.938 280.558 678.774 279.8 678.415 279.12C677.384 277.264 675.685 275.821 673.626 275.054C671.567 274.287 669.286 274.247 667.199 274.941C666.133 275.439 665.268 276.254 664.737 277.261C664.301 278.138 664.225 279.136 664.523 280.063C664.82 280.99 665.471 281.779 666.348 282.276C667.041 282.658 667.859 282.782 668.642 282.622C669.197 282.539 669.725 282.338 670.186 282.033C670.646 281.729 671.028 281.329 671.302 280.864C671.469 280.521 671.582 280.157 671.637 279.783V279.783Z" fill="black"/>
</g>
<path opacity="0.2" d="M617.835 281.801C619.195 281.801 620.297 280.762 620.297 279.48C620.297 278.199 619.195 277.16 617.835 277.16C616.475 277.16 615.373 278.199 615.373 279.48C615.373 280.762 616.475 281.801 617.835 281.801Z" fill="black"/>
<path opacity="0.2" d="M695.589 281.801C696.949 281.801 698.051 280.762 698.051 279.48C698.051 278.199 696.949 277.16 695.589 277.16C694.229 277.16 693.127 278.199 693.127 279.48C693.127 280.762 694.229 281.801 695.589 281.801Z" fill="black"/>
<path opacity="0.2" d="M543.926 277.16C543.438 277.16 542.962 277.298 542.557 277.555C542.151 277.812 541.836 278.177 541.65 278.605C541.464 279.032 541.416 279.502 541.512 279.956C541.609 280.409 541.845 280.825 542.19 281.151C542.536 281.477 542.976 281.698 543.455 281.786C543.934 281.875 544.429 281.827 544.879 281.648C545.328 281.469 545.712 281.167 545.981 280.781C546.249 280.396 546.391 279.943 546.388 279.48C546.384 278.864 546.123 278.274 545.662 277.839C545.2 277.404 544.576 277.16 543.926 277.16V277.16Z" fill="black"/>
<path d="M741.062 0.374685C741.062 0.576442 686.941 0.74938 620.191 0.74938C553.44 0.74938 499.289 0.576442 499.289 0.374685C499.289 0.172927 553.41 2.25992e-09 620.191 5.04848e-09C686.971 7.83705e-09 741.062 0.158516 741.062 0.374685Z" fill="white"/>
<path d="M584.186 5.9519C584.186 6.15366 574.946 6.32661 563.577 6.32661C552.209 6.32661 542.969 6.15366 542.969 5.9519C542.969 5.75014 552.194 5.57719 563.577 5.57719C574.961 5.57719 584.186 5.75014 584.186 5.9519Z" fill="white"/>
<path d="M643.307 26.2143C643.307 26.4161 635.434 26.589 625.753 26.589C616.072 26.589 608.184 26.4161 608.184 26.2143C608.184 26.0126 616.057 25.8396 625.753 25.8396C635.45 25.8396 643.307 26.0126 643.307 26.2143Z" fill="white"/>
<path d="M590.007 232.96C588.43 233.254 586.826 233.394 585.22 233.378C581.349 233.522 577.472 233.387 573.623 232.975C569.774 232.554 565.957 231.904 562.194 231.029C560.637 230.738 559.111 230.314 557.635 229.761C559.229 229.893 560.809 230.143 562.361 230.51C565.264 231.044 569.277 231.75 573.76 232.24C577.582 232.63 581.422 232.837 585.265 232.86C586.846 232.792 588.431 232.825 590.007 232.96V232.96Z" fill="#263238"/>
<path d="M705.468 264.738C705.468 264.738 705.468 264.348 705.468 263.613C705.468 262.878 705.468 261.783 705.468 260.356C705.468 257.474 705.468 253.223 705.468 247.703C705.468 236.65 705.468 220.509 705.376 200.146C705.376 159.347 705.27 101.456 705.194 33.0886L705.559 33.4345L534.032 33.4345L534.427 33.0598C534.427 119.975 534.427 200.232 534.351 264.752L534.032 264.449L658.809 264.608L693.37 264.68L702.489 264.68L705.62 264.68C705.62 264.68 704.586 264.68 702.58 264.68L693.567 264.68L659.083 264.752L534.108 264.91L533.789 264.91L533.789 264.608C533.789 200.146 533.789 119.831 533.713 32.9157L533.713 32.5409L534.123 32.5409L705.65 32.5409L705.772 32.5409L705.772 32.8724C705.772 101.341 705.635 159.289 705.604 200.146C705.604 220.538 705.528 236.65 705.498 247.703C705.498 253.208 705.498 257.431 705.498 260.284C705.498 261.726 705.498 262.778 705.498 263.513C705.498 264.248 705.468 264.738 705.468 264.738Z" fill="#263238"/>
<path d="M740.317 0.562027C738.149 1.5329 736.052 2.64024 734.04 3.87665C729.344 7.11026 725.095 10.8918 721.395 15.132C716.912 20.003 713.203 24.6867 710.361 27.9869C708.963 29.6298 707.763 30.8692 706.911 31.806C706.478 32.2668 705.994 32.6823 705.468 33.0454C705.814 32.527 706.217 32.0441 706.668 31.6042C707.459 30.6819 708.583 29.3416 709.936 27.6555C712.641 24.2832 716.289 19.5419 720.787 14.6852C724.528 10.3963 728.882 6.62264 733.721 3.47313C734.564 2.93147 735.448 2.44977 736.366 2.03199L737.475 1.49877C737.825 1.35466 738.159 1.25377 738.463 1.15289C739.058 0.895762 739.679 0.697755 740.317 0.562027V0.562027Z" fill="#263238"/>
<path d="M741.153 298.403C740.649 297.974 740.2 297.49 739.816 296.961L736.366 293.085C733.432 289.828 729.283 285.403 724.405 280.792C719.526 276.18 714.845 272.246 711.395 269.479L707.291 266.222C706.745 265.849 706.236 265.43 705.772 264.968C706.365 265.245 706.922 265.588 707.428 265.991C708.462 266.683 709.921 267.735 711.699 269.061C720.934 276.074 729.337 284.018 736.761 292.753C738.174 294.425 739.284 295.809 740.013 296.789C740.451 297.288 740.833 297.828 741.153 298.403V298.403Z" fill="#263238"/>
<path d="M498.468 297.97C498.734 297.407 499.06 296.871 499.441 296.371C500.094 295.347 501.128 293.921 502.481 292.206C509.459 283.224 517.946 275.39 527.603 269.018C529.457 267.807 530.977 266.87 532.071 266.265C532.61 265.917 533.186 265.622 533.789 265.386C533.324 265.809 532.815 266.185 532.269 266.51C531.236 267.188 529.761 268.182 527.953 269.392C518.55 275.962 510.138 283.72 502.952 292.451C501.569 294.122 500.474 295.506 499.73 296.457C499.372 297.006 498.948 297.513 498.468 297.97V297.97Z" fill="#263238"/>
<path d="M499.076 0.562027C499.598 0.920316 500.081 1.32573 500.52 1.77258L504.289 5.23132C507.481 8.1136 511.964 12.0912 516.934 16.429C521.904 20.7668 526.357 24.7876 529.457 27.7996C530.977 29.2407 532.223 30.5522 533.044 31.4313C533.506 31.8701 533.918 32.3531 534.275 32.8724C533.724 32.5225 533.214 32.1166 532.755 31.6618L528.986 28.2031C525.795 25.3208 521.311 21.3433 516.326 17.0054C511.341 12.6676 506.918 8.64683 503.818 5.63484C502.298 4.1937 501.037 2.88226 500.216 2.00317C499.782 1.56357 499.4 1.08032 499.076 0.562027Z" fill="#263238"/>
<path d="M730.833 7.40746C731.046 7.40746 731.229 70.2988 731.229 147.861C731.229 225.423 731.046 288.329 730.833 288.329C730.621 288.329 730.438 225.452 730.438 147.861C730.438 70.27 730.621 7.40746 730.833 7.40746Z" fill="#263238"/>
<path d="M727.414 6.75895C727.414 6.9607 677.898 7.13364 616.832 7.13364C555.765 7.13364 506.25 6.9607 506.25 6.75895C506.25 6.55719 555.75 6.38426 616.832 6.38426C677.913 6.38426 727.414 6.54278 727.414 6.75895Z" fill="#263238"/>
<path d="M506.934 283.804C506.706 283.804 506.538 221.921 506.538 145.613C506.538 69.3045 506.706 7.40746 506.934 7.40746C507.162 7.40746 507.329 69.2612 507.329 145.613C507.329 221.964 507.146 283.804 506.934 283.804Z" fill="#263238"/>
<path d="M730.833 288.934C730.833 289.136 681.926 289.309 621.619 289.309C561.313 289.309 512.39 289.136 512.39 288.934C512.39 288.733 561.282 288.56 621.619 288.56C681.956 288.56 730.833 288.761 730.833 288.934Z" fill="#263238"/>
<path d="M712.216 269.839C712.216 269.839 712.216 269.436 712.216 268.672C712.216 267.908 712.216 266.755 712.216 265.256C712.216 262.244 712.216 257.806 712.216 252.027C712.216 240.498 712.14 223.55 712.079 202.163C711.851 159.419 711.851 98.7037 711.653 26.9349L712.003 27.2664L526.433 26.6467L526.828 26.272L526.828 26.5314C527.102 117.756 527.375 202.149 527.573 270.329L527.254 270.027L661.727 269.825L708.842 269.825L712.216 269.825L708.918 269.825L699.176 269.825L661.955 269.998L527.284 270.517L526.965 270.517L526.965 270.214C526.722 202.048 526.403 117.64 526.068 26.4161L526.068 25.7676L526.433 25.7676L711.988 26.4593L712.337 26.4593L712.337 26.8052C712.337 98.6893 712.337 159.39 712.337 202.25C712.337 223.607 712.337 240.483 712.337 252.041C712.337 257.806 712.337 262.201 712.337 265.199C712.337 266.64 712.337 267.807 712.337 268.585C712.337 269.364 712.216 269.839 712.216 269.839Z" fill="#263238"/>
<g opacity="0.2">
<path opacity="0.2" d="M541.783 270.286C541.54 270.286 541.327 269.061 541.388 267.577C541.449 266.092 541.57 264.896 541.783 264.867C541.996 264.838 542.239 266.092 542.178 267.591C542.255 268.506 542.12 269.426 541.783 270.286V270.286Z" fill="black"/>
</g>
<g opacity="0.2">
<path opacity="0.2" d="M535.749 270.358C535.521 270.358 535.293 269.133 535.354 267.649C535.281 266.729 535.416 265.805 535.749 264.939C535.977 264.939 536.205 266.164 536.145 267.663C536.084 269.162 535.962 270.344 535.749 270.358Z" fill="black"/>
</g>
<g opacity="0.2">
<path opacity="0.2" d="M548.607 270.041C548.394 270.041 548.166 268.888 548.121 267.447C548.075 266.006 548.121 264.824 548.41 264.824C548.698 264.824 548.85 265.977 548.911 267.418C548.972 268.859 548.82 270.041 548.607 270.041Z" fill="black"/>
</g>
<g opacity="0.2">
<path opacity="0.2" d="M554.869 270.041C554.641 270.041 554.428 268.888 554.367 267.447C554.306 266.006 554.458 264.824 554.671 264.824C554.884 264.824 555.112 265.977 555.158 267.418C555.203 268.859 555.082 270.041 554.869 270.041Z" fill="black"/>
</g>
<g opacity="0.2">
<path opacity="0.2" d="M561.115 270.041C560.902 270.041 560.674 268.888 560.629 267.447C560.583 266.006 560.705 264.824 560.918 264.824C561.13 264.824 561.358 265.977 561.419 267.418C561.48 268.859 561.389 270.041 561.115 270.041Z" fill="black"/>
</g>
<g opacity="0.2">
<path opacity="0.2" d="M567.377 270.041C567.149 270.041 566.936 268.888 566.875 267.447C566.815 266.006 566.967 264.824 567.179 264.824C567.392 264.824 567.62 265.977 567.666 267.418C567.711 268.859 567.59 270.041 567.377 270.041Z" fill="black"/>
</g>
<g opacity="0.2">
<path opacity="0.2" d="M573.623 270.041C573.411 270.041 573.183 268.888 573.137 267.447C573.091 266.006 573.213 264.824 573.441 264.824C573.669 264.824 573.866 265.977 573.927 267.418C573.988 268.859 573.851 270.041 573.623 270.041Z" fill="black"/>
</g>
<g opacity="0.2">
<path opacity="0.2" d="M579.885 270.041C579.657 270.041 579.444 268.888 579.383 267.447C579.323 266.006 579.475 264.824 579.687 264.824C579.9 264.824 580.128 265.977 580.174 267.418C580.219 268.859 580.098 270.041 579.885 270.041Z" fill="black"/>
</g>
<g opacity="0.2">
<path opacity="0.2" d="M586.131 270.041C585.919 270.041 585.691 268.888 585.645 267.447C585.599 266.006 585.645 264.824 585.949 264.824C586.253 264.824 586.375 265.977 586.435 267.418C586.496 268.859 586.359 270.041 586.131 270.041Z" fill="black"/>
</g>
<g opacity="0.2">
<path opacity="0.2" d="M592.393 270.041C592.165 270.041 591.952 268.888 591.892 267.447C591.831 266.006 591.983 264.824 592.196 264.824C592.408 264.824 592.636 265.977 592.697 267.418C592.758 268.859 592.606 270.041 592.393 270.041Z" fill="black"/>
</g>
<g opacity="0.2">
<path opacity="0.2" d="M598.64 270.041C598.427 270.041 598.199 268.888 598.153 267.447C598.108 266.006 598.229 264.824 598.457 264.824C598.685 264.824 598.898 265.977 598.944 267.418C598.989 268.859 598.868 270.041 598.64 270.041Z" fill="black"/>
</g>
<g opacity="0.2">
<path opacity="0.2" d="M604.901 270.041C604.688 270.041 604.46 268.888 604.415 267.447C604.369 266.006 604.491 264.824 604.704 264.824C604.916 264.824 605.144 265.977 605.205 267.418C605.266 268.859 605.114 270.041 604.901 270.041Z" fill="black"/>
</g>
<g opacity="0.2">
<path opacity="0.2" d="M611.148 270.041C610.935 270.041 610.722 268.888 610.661 267.447C610.601 266.006 610.737 264.824 610.965 264.824C611.193 264.824 611.406 265.977 611.452 267.418C611.497 268.859 611.376 270.041 611.148 270.041Z" fill="black"/>
</g>
<g opacity="0.2">
<path opacity="0.2" d="M617.409 270.041C617.197 270.041 616.969 268.888 616.923 267.447C616.877 266.006 616.999 264.824 617.212 264.824C617.425 264.824 617.652 265.977 617.713 267.418C617.774 268.859 617.622 270.041 617.409 270.041Z" fill="black"/>
</g>
<g opacity="0.2">
<path opacity="0.2" d="M623.701 270.041C623.473 270.041 623.261 268.888 623.2 267.447C623.139 266.006 623.2 264.824 623.504 264.824C623.808 264.824 623.945 265.977 623.99 267.418C624.036 268.859 623.884 270.041 623.701 270.041Z" fill="black"/>
</g>
<g opacity="0.2">
<path opacity="0.2" d="M629.917 270.041C629.705 270.041 629.477 268.888 629.431 267.447C629.385 266.006 629.431 264.824 629.72 264.824C630.009 264.824 630.161 265.977 630.221 267.418C630.282 268.859 630.13 270.041 629.917 270.041Z" fill="black"/>
</g>
<g opacity="0.2">
<path opacity="0.2" d="M636.179 270.041C635.951 270.041 635.738 268.888 635.678 267.447C635.617 266.006 635.769 264.824 635.981 264.824C636.194 264.824 636.422 265.977 636.468 267.418C636.513 268.859 636.392 270.041 636.179 270.041Z" fill="black"/>
</g>
<g opacity="0.2">
<path opacity="0.2" d="M642.426 270.041C642.213 270.041 641.985 268.888 641.939 267.447C641.894 266.006 642.015 264.824 642.228 264.824C642.441 264.824 642.669 265.977 642.73 267.418C642.79 268.859 642.638 270.041 642.426 270.041Z" fill="black"/>
</g>
<g opacity="0.2">
<path opacity="0.2" d="M648.687 270.041C648.459 270.041 648.246 268.888 648.186 267.447C648.125 266.006 648.277 264.824 648.49 264.824C648.702 264.824 648.93 265.977 648.976 267.418C649.022 268.859 648.9 270.041 648.687 270.041Z" fill="black"/>
</g>
<g opacity="0.2">
<path opacity="0.2" d="M654.934 270.041C654.721 270.041 654.493 268.888 654.447 267.447C654.402 266.006 654.447 264.824 654.751 264.824C655.055 264.824 655.177 265.977 655.238 267.418C655.298 268.859 655.162 270.041 654.934 270.041Z" fill="black"/>
</g>
<g opacity="0.2">
<path opacity="0.2" d="M661.195 270.041C660.967 270.041 660.755 268.888 660.694 267.447C660.633 266.006 660.785 264.824 660.998 264.824C661.211 264.824 661.438 265.977 661.484 267.418C661.53 268.859 661.408 270.041 661.195 270.041Z" fill="black"/>
</g>
<g opacity="0.2">
<path opacity="0.2" d="M667.442 270.041C667.229 270.041 667.001 268.888 666.955 267.447C666.91 266.006 667.031 264.824 667.259 264.824C667.487 264.824 667.685 265.977 667.746 267.418C667.807 268.859 667.67 270.041 667.442 270.041Z" fill="black"/>
</g>
<g opacity="0.2">
<path opacity="0.2" d="M673.703 270.041C673.476 270.041 673.263 268.888 673.202 267.447C673.141 266.006 673.293 264.824 673.506 264.824C673.719 264.824 673.947 265.977 674.007 267.418C674.068 268.859 673.855 270.041 673.703 270.041Z" fill="black"/>
</g>
<g opacity="0.2">
<path opacity="0.2" d="M679.935 270.041C679.722 270.041 679.494 268.888 679.448 267.447C679.403 266.006 679.524 264.824 679.752 264.824C679.98 264.824 680.193 265.977 680.239 267.418C680.284 268.859 680.178 270.041 679.935 270.041Z" fill="black"/>
</g>
<g opacity="0.2">
<path opacity="0.2" d="M686.212 270.041C685.999 270.041 685.771 268.888 685.725 267.447C685.68 266.006 685.801 264.824 686.014 264.824C686.227 264.824 686.455 265.977 686.516 267.418C686.576 268.859 686.424 270.041 686.212 270.041Z" fill="black"/>
</g>
<g opacity="0.2">
<path opacity="0.2" d="M692.458 270.041C692.245 270.041 692.033 268.888 691.972 267.447C691.911 266.006 692.048 264.824 692.276 264.824C692.504 264.824 692.716 265.977 692.762 267.418C692.808 268.859 692.686 270.041 692.458 270.041Z" fill="black"/>
</g>
<g opacity="0.2">
<path opacity="0.2" d="M698.72 270.041C698.507 270.041 698.279 268.888 698.233 267.447C698.188 266.006 698.233 264.824 698.522 264.824C698.811 264.824 698.963 265.977 699.024 267.418C699.084 268.859 698.932 270.041 698.72 270.041Z" fill="black"/>
</g>
<g opacity="0.2">
<path opacity="0.2" d="M704.966 270.041C704.753 270.041 704.541 268.888 704.48 267.447C704.419 266.006 704.556 264.824 704.784 264.824C705.012 264.824 705.225 265.977 705.27 267.418C705.316 268.859 705.194 270.041 704.966 270.041Z" fill="black"/>
</g>
<g opacity="0.2">
<path opacity="0.2" d="M712.003 263.167C709.836 263.666 707.574 263.666 705.407 263.167C707.574 262.667 709.836 262.667 712.003 263.167V263.167Z" fill="black"/>
</g>
<g opacity="0.2">
<path opacity="0.2" d="M712.003 256.566C709.836 257.066 707.574 257.066 705.407 256.566C707.574 256.067 709.836 256.067 712.003 256.566V256.566Z" fill="black"/>
</g>
<g opacity="0.2">
<path opacity="0.2" d="M712.003 250.024C709.836 250.523 707.574 250.523 705.407 250.024C707.574 249.524 709.836 249.524 712.003 250.024V250.024Z" fill="black"/>
</g>
<g opacity="0.2">
<path opacity="0.2" d="M712.003 243.365C709.836 243.865 707.574 243.865 705.407 243.365C707.574 242.866 709.836 242.866 712.003 243.365V243.365Z" fill="black"/>
</g>
<g opacity="0.2">
<path opacity="0.2" d="M712.003 236.765C709.836 237.264 707.574 237.264 705.407 236.765C707.572 236.247 709.838 236.247 712.003 236.765V236.765Z" fill="black"/>
</g>
<g opacity="0.2">
<path opacity="0.2" d="M712.003 230.15C709.836 230.65 707.574 230.65 705.407 230.15C707.574 229.651 709.836 229.651 712.003 230.15V230.15Z" fill="black"/>
</g>
<g opacity="0.2">
<path opacity="0.2" d="M712.003 223.55C709.836 224.049 707.574 224.049 705.407 223.55C707.574 223.05 709.836 223.05 712.003 223.55V223.55Z" fill="black"/>
</g>
<g opacity="0.2">
<path opacity="0.2" d="M712.003 216.949C709.836 217.449 707.574 217.449 705.407 216.949C707.574 216.45 709.836 216.45 712.003 216.949V216.949Z" fill="black"/>
</g>
<g opacity="0.2">
<path opacity="0.2" d="M712.003 210.349C709.836 210.848 707.574 210.848 705.407 210.349C707.574 209.85 709.836 209.85 712.003 210.349V210.349Z" fill="black"/>
</g>
<g opacity="0.2">
<path opacity="0.2" d="M712.003 203.748C709.836 204.248 707.574 204.248 705.407 203.748C707.574 203.249 709.836 203.249 712.003 203.748V203.748Z" fill="black"/>
</g>
<g opacity="0.2">
<path opacity="0.2" d="M712.003 197.148C709.836 197.647 707.574 197.647 705.407 197.148C707.574 196.649 709.836 196.649 712.003 197.148V197.148Z" fill="black"/>
</g>
<g opacity="0.2">
<path opacity="0.2" d="M712.003 190.548C709.836 191.047 707.574 191.047 705.407 190.548C707.574 190.048 709.836 190.048 712.003 190.548V190.548Z" fill="black"/>
</g>
<g opacity="0.2">
<path opacity="0.2" d="M712.003 183.947C709.836 184.447 707.574 184.447 705.407 183.947C707.574 183.448 709.836 183.448 712.003 183.947V183.947Z" fill="black"/>
</g>
<g opacity="0.2">
<path opacity="0.2" d="M712.003 177.347C709.836 177.846 707.574 177.846 705.407 177.347C707.574 176.847 709.836 176.847 712.003 177.347V177.347Z" fill="black"/>
</g>
<g opacity="0.2">
<path opacity="0.2" d="M712.003 170.761C709.838 171.279 707.572 171.279 705.407 170.761C707.574 170.261 709.836 170.261 712.003 170.761V170.761Z" fill="black"/>
</g>
<g opacity="0.2">
<path opacity="0.2" d="M712.003 164.132C709.836 164.631 707.574 164.631 705.407 164.132C707.574 163.632 709.836 163.632 712.003 164.132V164.132Z" fill="black"/>
</g>
<g opacity="0.2">
<path opacity="0.2" d="M712.003 157.531C709.836 158.03 707.574 158.03 705.407 157.531C707.574 157.032 709.836 157.032 712.003 157.531V157.531Z" fill="black"/>
</g>
<g opacity="0.2">
<path opacity="0.2" d="M712.003 150.931C709.836 151.43 707.574 151.43 705.407 150.931C707.574 150.431 709.836 150.431 712.003 150.931V150.931Z" fill="black"/>
</g>
<g opacity="0.2">
<path opacity="0.2" d="M712.003 144.33C709.836 144.83 707.574 144.83 705.407 144.33C707.574 143.831 709.836 143.831 712.003 144.33V144.33Z" fill="black"/>
</g>
<g opacity="0.2">
<path opacity="0.2" d="M712.003 137.73C709.836 138.229 707.574 138.229 705.407 137.73C707.574 137.23 709.836 137.23 712.003 137.73V137.73Z" fill="black"/>
</g>
<g opacity="0.2">
<path opacity="0.2" d="M712.003 131.129C709.836 131.629 707.574 131.629 705.407 131.129C707.574 130.63 709.836 130.63 712.003 131.129V131.129Z" fill="black"/>
</g>
<g opacity="0.2">
<path opacity="0.2" d="M712.003 124.529C709.836 125.028 707.574 125.028 705.407 124.529C707.574 124.03 709.836 124.03 712.003 124.529V124.529Z" fill="black"/>
</g>
<g opacity="0.2">
<path opacity="0.2" d="M712.003 117.929C709.836 118.428 707.574 118.428 705.407 117.929C707.574 117.429 709.836 117.429 712.003 117.929V117.929Z" fill="black"/>
</g>
<g opacity="0.2">
<path opacity="0.2" d="M712.003 111.328C709.836 111.827 707.574 111.827 705.407 111.328C707.572 110.81 709.838 110.81 712.003 111.328V111.328Z" fill="black"/>
</g>
<g opacity="0.2">
<path opacity="0.2" d="M712.003 104.713C709.836 105.213 707.574 105.213 705.407 104.713C707.574 104.214 709.836 104.214 712.003 104.713V104.713Z" fill="black"/>
</g>
<g opacity="0.2">
<path opacity="0.2" d="M712.003 98.1129C709.836 98.6122 707.574 98.6122 705.407 98.1129C707.574 97.6135 709.836 97.6135 712.003 98.1129V98.1129Z" fill="black"/>
</g>
<g opacity="0.2">
<path opacity="0.2" d="M712.003 91.498C709.836 91.9974 707.574 91.9974 705.407 91.498C707.574 90.9987 709.836 90.9987 712.003 91.498V91.498Z" fill="black"/>
</g>
<g opacity="0.2">
<path opacity="0.2" d="M712.003 84.912C709.836 85.4114 707.574 85.4114 705.407 84.912C707.574 84.4126 709.836 84.4126 712.003 84.912V84.912Z" fill="black"/>
</g>
<g opacity="0.2">
<path opacity="0.2" d="M712.003 78.3116C709.836 78.8109 707.574 78.8109 705.407 78.3116C707.574 77.8123 709.836 77.8123 712.003 78.3116V78.3116Z" fill="black"/>
</g>
<g opacity="0.2">
<path opacity="0.2" d="M712.003 71.7112C709.836 72.2105 707.574 72.2105 705.407 71.7112C707.574 71.2118 709.836 71.2118 712.003 71.7112V71.7112Z" fill="black"/>
</g>
<g opacity="0.2">
<path opacity="0.2" d="M712.003 65.1107C709.836 65.6101 707.574 65.6101 705.407 65.1107C707.574 64.6114 709.836 64.6114 712.003 65.1107V65.1107Z" fill="black"/>
</g>
<g opacity="0.2">
<path opacity="0.2" d="M712.003 58.5103C709.836 59.0096 707.574 59.0096 705.407 58.5103C707.574 58.011 709.836 58.011 712.003 58.5103V58.5103Z" fill="black"/>
</g>
<g opacity="0.2">
<path opacity="0.2" d="M712.003 51.9099C709.836 52.4092 707.574 52.4092 705.407 51.9099C707.574 51.4105 709.836 51.4105 712.003 51.9099V51.9099Z" fill="black"/>
</g>
<g opacity="0.2">
<path opacity="0.2" d="M712.003 45.2951C709.838 45.8136 707.572 45.8136 705.407 45.2951C707.574 44.7957 709.836 44.7957 712.003 45.2951V45.2951Z" fill="black"/>
</g>
<g opacity="0.2">
<path opacity="0.2" d="M712.003 38.6946C709.836 39.194 707.574 39.194 705.407 38.6946C707.574 38.1953 709.836 38.1953 712.003 38.6946V38.6946Z" fill="black"/>
</g>
<g opacity="0.2">
<path opacity="0.2" d="M712.003 32.0942C709.836 32.5935 707.574 32.5935 705.407 32.0942C707.574 31.5948 709.836 31.5948 712.003 32.0942V32.0942Z" fill="black"/>
</g>
<g opacity="0.2">
<path opacity="0.2" d="M704.465 33.0454C703.939 31.0146 703.939 28.8935 704.465 26.8628C704.99 28.8935 704.99 31.0146 704.465 33.0454Z" fill="black"/>
</g>
<g opacity="0.2">
<path opacity="0.2" d="M697.838 33.0454C697.313 31.0146 697.313 28.8935 697.838 26.8628C698.364 28.8935 698.364 31.0146 697.838 33.0454Z" fill="black"/>
</g>
<g opacity="0.2">
<path opacity="0.2" d="M691.197 33.0454C690.671 31.0146 690.671 28.8935 691.197 26.8628C691.743 28.8911 691.743 31.0171 691.197 33.0454V33.0454Z" fill="black"/>
</g>
<g opacity="0.2">
<path opacity="0.2" d="M684.57 33.0454C684.045 31.0146 684.045 28.8935 684.57 26.8628C685.096 28.8935 685.096 31.0146 684.57 33.0454Z" fill="black"/>
</g>
<g opacity="0.2">
<path opacity="0.2" d="M677.944 33.0454C677.418 31.0146 677.418 28.8935 677.944 26.8628C678.469 28.8935 678.469 31.0146 677.944 33.0454Z" fill="black"/>
</g>
<g opacity="0.2">
<path opacity="0.2" d="M671.302 33.0454C670.777 31.0146 670.777 28.8935 671.302 26.8628C671.828 28.8935 671.828 31.0146 671.302 33.0454Z" fill="black"/>
</g>
<g opacity="0.2">
<path opacity="0.2" d="M664.737 33.0454C664.211 31.0146 664.211 28.8935 664.737 26.8628C665.262 28.8935 665.262 31.0146 664.737 33.0454Z" fill="black"/>
</g>
<g opacity="0.2">
<path opacity="0.2" d="M658.034 33.0454C657.509 31.0146 657.509 28.8935 658.034 26.8628C658.56 28.8935 658.56 31.0146 658.034 33.0454Z" fill="black"/>
</g>
<g opacity="0.2">
<path opacity="0.2" d="M651.408 33.0454C650.882 31.0146 650.882 28.8935 651.408 26.8628C651.933 28.8935 651.933 31.0146 651.408 33.0454Z" fill="black"/>
</g>
<g opacity="0.2">
<path opacity="0.2" d="M644.766 33.0454C644.241 31.0146 644.241 28.8935 644.766 26.8628C645.292 28.8935 645.292 31.0146 644.766 33.0454Z" fill="black"/>
</g>
<g opacity="0.2">
<path opacity="0.2" d="M638.14 33.0454C637.614 31.0146 637.614 28.8935 638.14 26.8628C638.665 28.8935 638.665 31.0146 638.14 33.0454Z" fill="black"/>
</g>
<g opacity="0.2">
<path opacity="0.2" d="M631.513 33.0454C630.966 31.0171 630.966 28.8911 631.513 26.8628C632.039 28.8935 632.039 31.0146 631.513 33.0454Z" fill="black"/>
</g>
<g opacity="0.2">
<path opacity="0.2" d="M624.872 33.0454C624.346 31.0146 624.346 28.8935 624.872 26.8628C625.397 28.8935 625.397 31.0146 624.872 33.0454Z" fill="black"/>
</g>
<g opacity="0.2">
<path opacity="0.2" d="M618.245 33.0454C617.72 31.0146 617.72 28.8935 618.245 26.8628C618.771 28.8935 618.771 31.0146 618.245 33.0454Z" fill="black"/>
</g>
<g opacity="0.2">
<path opacity="0.2" d="M611.543 33.0454C611.017 31.0146 611.017 28.8935 611.543 26.8628C612.068 28.8935 612.068 31.0146 611.543 33.0454V33.0454Z" fill="black"/>
</g>
<g opacity="0.2">
<path opacity="0.2" d="M604.977 33.0454C604.452 31.0146 604.452 28.8935 604.977 26.8628C605.503 28.8935 605.503 31.0146 604.977 33.0454Z" fill="black"/>
</g>
<g opacity="0.2">
<path opacity="0.2" d="M598.336 33.0454C597.81 31.0146 597.81 28.8935 598.336 26.8628C598.861 28.8935 598.861 31.0146 598.336 33.0454Z" fill="black"/>
</g>
<g opacity="0.2">
<path opacity="0.2" d="M591.785 33.0454C591.26 31.0146 591.26 28.8935 591.785 26.8628C592.311 28.8935 592.311 31.0146 591.785 33.0454Z" fill="black"/>
</g>
<g opacity="0.2">
<path opacity="0.2" d="M585.068 33.0454C584.542 31.0146 584.542 28.8935 585.068 26.8628C585.593 28.8935 585.593 31.0146 585.068 33.0454V33.0454Z" fill="black"/>
</g>
<g opacity="0.2">
<path opacity="0.2" d="M578.441 33.0454C577.916 31.0146 577.916 28.8935 578.441 26.8628C578.967 28.8935 578.967 31.0146 578.441 33.0454Z" fill="black"/>
</g>
<g opacity="0.2">
<path opacity="0.2" d="M571.815 33.0454C571.268 31.0171 571.268 28.8911 571.815 26.8628C572.34 28.8935 572.34 31.0146 571.815 33.0454Z" fill="black"/>
</g>
<g opacity="0.2">
<path opacity="0.2" d="M565.173 33.0454C564.648 31.0146 564.648 28.8935 565.173 26.8628C565.699 28.8935 565.699 31.0146 565.173 33.0454Z" fill="black"/>
</g>
<g opacity="0.2">
<path opacity="0.2" d="M558.547 33.0454C558.021 31.0146 558.021 28.8935 558.547 26.8628C559.072 28.8935 559.072 31.0146 558.547 33.0454Z" fill="black"/>
</g>
<g opacity="0.2">
<path opacity="0.2" d="M551.905 33.0454C551.38 31.0146 551.38 28.8935 551.905 26.8628C552.431 28.8935 552.431 31.0146 551.905 33.0454Z" fill="black"/>
</g>
<g opacity="0.2">
<path opacity="0.2" d="M545.279 33.0454C544.753 31.0146 544.753 28.8935 545.279 26.8628C545.804 28.8935 545.804 31.0146 545.279 33.0454Z" fill="black"/>
</g>
<g opacity="0.2">
<path opacity="0.2" d="M538.591 33.0454C538.066 31.0146 538.066 28.8935 538.591 26.8628C539.117 28.8935 539.117 31.0146 538.591 33.0454V33.0454Z" fill="black"/>
</g>
<g opacity="0.2">
<path opacity="0.2" d="M533.85 35.2071C531.38 35.7064 528.827 35.7064 526.357 35.2071C528.827 34.7077 531.38 34.7077 533.85 35.2071Z" fill="black"/>
</g>
<g opacity="0.2">
<path opacity="0.2" d="M533.85 40.4672C531.38 40.9666 528.827 40.9666 526.357 40.4672C528.827 39.9678 531.38 39.9678 533.85 40.4672V40.4672Z" fill="black"/>
</g>
<g opacity="0.2">
<path opacity="0.2" d="M533.85 45.7274C531.38 46.2268 528.827 46.2268 526.357 45.7274C528.827 45.228 531.38 45.228 533.85 45.7274Z" fill="black"/>
</g>
<g opacity="0.2">
<path opacity="0.2" d="M533.85 50.9876C531.38 51.4869 528.827 51.4869 526.357 50.9876C528.827 50.4882 531.38 50.4882 533.85 50.9876V50.9876Z" fill="black"/>
</g>
<g opacity="0.2">
<path opacity="0.2" d="M533.85 56.2477C531.38 56.7471 528.827 56.7471 526.357 56.2477C528.827 55.7483 531.38 55.7483 533.85 56.2477Z" fill="black"/>
</g>
<g opacity="0.2">
<path opacity="0.2" d="M533.85 61.5079C531.38 62.0073 528.827 62.0073 526.357 61.5079C528.827 61.0085 531.38 61.0085 533.85 61.5079Z" fill="black"/>
</g>
<g opacity="0.2">
<path opacity="0.2" d="M533.85 66.768C531.38 67.2674 528.827 67.2674 526.357 66.768C528.827 66.2686 531.38 66.2686 533.85 66.768Z" fill="black"/>
</g>
<g opacity="0.2">
<path opacity="0.2" d="M533.85 72.0282C531.38 72.5276 528.827 72.5276 526.357 72.0282C528.827 71.5288 531.38 71.5288 533.85 72.0282Z" fill="black"/>
</g>
<g opacity="0.2">
<path opacity="0.2" d="M533.85 77.274C531.382 77.7927 528.824 77.7927 526.357 77.274C528.827 76.7746 531.38 76.7746 533.85 77.274Z" fill="black"/>
</g>
<g opacity="0.2">
<path opacity="0.2" d="M533.85 82.5341C531.38 83.0335 528.827 83.0335 526.357 82.5341C528.827 82.0347 531.38 82.0347 533.85 82.5341Z" fill="black"/>
</g>
<g opacity="0.2">
<path opacity="0.2" d="M533.85 87.7943C531.38 88.2937 528.827 88.2937 526.357 87.7943C528.827 87.2949 531.38 87.2949 533.85 87.7943V87.7943Z" fill="black"/>
</g>
<g opacity="0.2">
<path opacity="0.2" d="M533.85 93.0544C531.38 93.5538 528.827 93.5538 526.357 93.0544C528.827 92.5551 531.38 92.5551 533.85 93.0544Z" fill="black"/>
</g>
<g opacity="0.2">
<path opacity="0.2" d="M533.85 98.3146C531.38 98.814 528.827 98.814 526.357 98.3146C528.827 97.8152 531.38 97.8152 533.85 98.3146V98.3146Z" fill="black"/>
</g>
<g opacity="0.2">
<path opacity="0.2" d="M533.85 103.575C531.38 104.074 528.827 104.074 526.357 103.575C528.827 103.075 531.38 103.075 533.85 103.575Z" fill="black"/>
</g>
<g opacity="0.2">
<path opacity="0.2" d="M533.85 108.792C531.38 109.291 528.827 109.291 526.357 108.792C528.827 108.292 531.38 108.292 533.85 108.792V108.792Z" fill="black"/>
</g>
<g opacity="0.2">
<path opacity="0.2" d="M533.85 114.095C531.38 114.594 528.827 114.594 526.357 114.095C528.827 113.596 531.38 113.596 533.85 114.095V114.095Z" fill="black"/>
</g>
<g opacity="0.2">
<path opacity="0.2" d="M533.85 119.355C531.38 119.855 528.827 119.855 526.357 119.355C528.827 118.856 531.38 118.856 533.85 119.355Z" fill="black"/>
</g>
<g opacity="0.2">
<path opacity="0.2" d="M533.85 124.644C531.38 125.144 528.827 125.144 526.357 124.644C528.824 124.126 531.382 124.126 533.85 124.644Z" fill="black"/>
</g>
<g opacity="0.2">
<path opacity="0.2" d="M533.85 129.861C531.38 130.361 528.827 130.361 526.357 129.861C528.827 129.362 531.38 129.362 533.85 129.861Z" fill="black"/>
</g>
<g opacity="0.2">
<path opacity="0.2" d="M533.85 135.121C531.38 135.621 528.827 135.621 526.357 135.121C528.827 134.622 531.38 134.622 533.85 135.121Z" fill="black"/>
</g>
<g opacity="0.2">
<path opacity="0.2" d="M533.85 140.382C531.38 140.881 528.827 140.881 526.357 140.382C528.827 139.882 531.38 139.882 533.85 140.382V140.382Z" fill="black"/>
</g>
<g opacity="0.2">
<path opacity="0.2" d="M533.85 145.642C531.38 146.141 528.827 146.141 526.357 145.642C528.827 145.142 531.38 145.142 533.85 145.642V145.642Z" fill="black"/>
</g>
<g opacity="0.2">
<path opacity="0.2" d="M533.85 150.902C531.38 151.401 528.827 151.401 526.357 150.902C528.827 150.402 531.38 150.402 533.85 150.902V150.902Z" fill="black"/>
</g>
<g opacity="0.2">
<path opacity="0.2" d="M533.85 156.162C531.38 156.661 528.827 156.661 526.357 156.162C528.827 155.663 531.38 155.663 533.85 156.162V156.162Z" fill="black"/>
</g>
<g opacity="0.2">
<path opacity="0.2" d="M533.85 161.422C531.38 161.922 528.827 161.922 526.357 161.422C528.827 160.923 531.38 160.923 533.85 161.422V161.422Z" fill="black"/>
</g>
<g opacity="0.2">
<path opacity="0.2" d="M533.85 166.682C531.38 167.182 528.827 167.182 526.357 166.682C528.827 166.183 531.38 166.183 533.85 166.682V166.682Z" fill="black"/>
</g>
<g opacity="0.2">
<path opacity="0.2" d="M533.85 171.943C531.38 172.442 528.827 172.442 526.357 171.943C528.827 171.443 531.38 171.443 533.85 171.943V171.943Z" fill="black"/>
</g>
<g opacity="0.2">
<path opacity="0.2" d="M533.85 177.188C531.382 177.707 528.824 177.707 526.357 177.188C528.827 176.689 531.38 176.689 533.85 177.188Z" fill="black"/>
</g>
<g opacity="0.2">
<path opacity="0.2" d="M533.85 182.448C531.38 182.948 528.827 182.948 526.357 182.448C528.827 181.949 531.38 181.949 533.85 182.448Z" fill="black"/>
</g>
<g opacity="0.2">
<path opacity="0.2" d="M533.85 187.709C531.38 188.208 528.827 188.208 526.357 187.709C528.827 187.209 531.38 187.209 533.85 187.709V187.709Z" fill="black"/>
</g>
<g opacity="0.2">
<path opacity="0.2" d="M533.85 192.969C531.38 193.468 528.827 193.468 526.357 192.969C528.827 192.469 531.38 192.469 533.85 192.969V192.969Z" fill="black"/>
</g>
<g opacity="0.2">
<path opacity="0.2" d="M533.85 198.229C531.38 198.728 528.827 198.728 526.357 198.229C528.827 197.73 531.38 197.73 533.85 198.229V198.229Z" fill="black"/>
</g>
<g opacity="0.2">
<path opacity="0.2" d="M533.85 203.489C531.38 203.988 528.827 203.988 526.357 203.489C528.827 202.99 531.38 202.99 533.85 203.489V203.489Z" fill="black"/>
</g>
<g opacity="0.2">
<path opacity="0.2" d="M533.85 208.749C531.38 209.249 528.827 209.249 526.357 208.749C528.827 208.25 531.38 208.25 533.85 208.749Z" fill="black"/>
</g>
<g opacity="0.2">
<path opacity="0.2" d="M533.85 213.995C531.38 214.494 528.827 214.494 526.357 213.995C528.827 213.496 531.38 213.496 533.85 213.995Z" fill="black"/>
</g>
<g opacity="0.2">
<path opacity="0.2" d="M533.85 219.27C531.38 219.769 528.827 219.769 526.357 219.27C528.827 218.77 531.38 218.77 533.85 219.27Z" fill="black"/>
</g>
<g opacity="0.2">
<path opacity="0.2" d="M533.85 224.53C531.38 225.029 528.827 225.029 526.357 224.53C528.827 224.03 531.38 224.03 533.85 224.53V224.53Z" fill="black"/>
</g>
<g opacity="0.2">
<path opacity="0.2" d="M533.85 229.848C531.38 230.347 528.827 230.347 526.357 229.848C528.827 229.348 531.38 229.348 533.85 229.848V229.848Z" fill="black"/>
</g>
<g opacity="0.2">
<path opacity="0.2" d="M533.85 235.036C531.38 235.535 528.827 235.535 526.357 235.036C528.827 234.536 531.38 234.536 533.85 235.036Z" fill="black"/>
</g>
<g opacity="0.2">
<path opacity="0.2" d="M533.85 240.296C531.38 240.795 528.827 240.795 526.357 240.296C528.827 239.796 531.38 239.796 533.85 240.296V240.296Z" fill="black"/>
</g>
<g opacity="0.2">
<path opacity="0.2" d="M533.85 245.556C531.38 246.055 528.827 246.055 526.357 245.556C528.827 245.057 531.38 245.057 533.85 245.556Z" fill="black"/>
</g>
<g opacity="0.2">
<path opacity="0.2" d="M533.85 250.816C531.38 251.315 528.827 251.315 526.357 250.816C528.827 250.317 531.38 250.317 533.85 250.816Z" fill="black"/>
</g>
<g opacity="0.2">
<path opacity="0.2" d="M533.85 256.076C531.38 256.576 528.827 256.576 526.357 256.076C528.827 255.577 531.38 255.577 533.85 256.076Z" fill="black"/>
</g>
<g opacity="0.2">
<path opacity="0.2" d="M533.85 261.336C531.38 261.836 528.827 261.836 526.357 261.336C528.827 260.837 531.38 260.837 533.85 261.336Z" fill="black"/>
</g>
<path d="M540.613 71.985C543.212 73.8008 544.367 76.9137 545.051 79.8968C545.735 82.88 546.191 86.0217 547.71 88.6157C552.118 87.3908 556.829 90.0569 559.307 93.8039C561.784 97.5508 562.346 102.004 562.833 106.327C563.083 105.615 563.618 105.023 564.322 104.679C565.026 104.334 565.844 104.264 566.602 104.483C568.097 105.041 569.353 106.055 570.173 107.365C573.586 112.025 575.454 117.545 575.538 123.218C586.481 131.36 595.174 142.111 603.64 152.674C607.835 148.688 613.308 146.139 619.199 145.426C625.09 144.714 631.064 145.88 636.179 148.74C640.722 135.572 650.087 124.381 662.578 117.194C662.324 114.966 662.611 112.712 663.417 110.605C664.223 108.499 665.527 106.595 667.228 105.04C668.93 103.485 670.984 102.319 673.234 101.633C675.484 100.947 677.87 100.758 680.208 101.082C679.373 99.3606 679.039 97.4585 679.243 95.5738C679.446 93.689 680.179 91.8905 681.365 90.3656C682.551 88.8408 684.146 87.6455 685.985 86.9043C687.824 86.163 689.839 85.903 691.82 86.1514C691.526 82.4804 692.109 78.7938 693.524 75.3657C694.94 71.9375 697.152 68.856 699.996 66.3501C701.467 64.9914 703.416 64.1959 705.468 64.1164L705.468 33.0454L533.926 33.0454L533.926 71.495C534.98 70.9851 536.162 70.7611 537.342 70.8475C538.522 70.934 539.654 71.3276 540.613 71.985V71.985Z" fill="#EBEBEB"/>
<path d="M569.581 119.254C571.681 120.507 573.71 121.863 575.66 123.318C575.576 117.646 573.708 112.126 570.295 107.466C569.475 106.156 568.218 105.142 566.723 104.584C565.965 104.365 565.147 104.435 564.443 104.779C563.739 105.124 563.205 105.716 562.954 106.428C562.422 102.105 561.829 97.6229 559.428 93.9047C557.027 90.1866 552.239 87.4917 547.832 88.7166C546.206 86.0793 545.811 82.9521 545.111 79.9545C544.412 76.9569 543.272 73.8585 540.674 72.0426C539.714 71.3852 538.583 70.9916 537.403 70.9052C536.223 70.8187 535.041 71.0428 533.986 71.5526L533.986 111.386C545.978 109.455 559.094 112.913 569.581 119.254Z" fill="#263238"/>
<path d="M700.057 66.451C697.213 68.9569 695.001 72.0384 693.585 75.4666C692.169 78.8947 691.587 82.5813 691.88 86.2523C689.9 86.0039 687.885 86.2639 686.046 87.0051C684.207 87.7463 682.612 88.9417 681.426 90.4665C680.24 91.9914 679.507 93.7899 679.304 95.6746C679.1 97.5594 679.434 99.4615 680.269 101.182C677.93 100.859 675.545 101.048 673.295 101.734C671.045 102.42 668.991 103.585 667.289 105.141C665.587 106.696 664.284 108.6 663.478 110.706C662.672 112.813 662.385 115.066 662.639 117.294C663.657 116.718 664.676 116.156 665.679 115.637C677.92 109.633 691.941 107.729 705.468 110.233L705.468 64.1164C703.423 64.237 701.496 65.0682 700.057 66.451Z" fill="#263238"/>
<path d="M665.724 115.637C664.676 116.156 663.657 116.718 662.685 117.294C650.193 124.482 640.828 135.673 636.285 148.841C631.17 145.981 625.197 144.815 619.306 145.527C613.415 146.239 607.941 148.789 603.746 152.775C595.281 142.212 586.587 131.461 575.645 123.318C573.695 121.863 571.666 120.507 569.565 119.254C559.079 112.913 545.963 109.455 533.91 111.328L533.91 264.738L705.468 264.738L705.468 110.233C691.956 107.739 677.952 109.643 665.724 115.637V115.637Z" fill="#455A64"/>
<path d="M558.486 228.723C550.568 237.932 541.054 252.834 540.446 265.069L696.774 265.156C693.446 242.429 672.062 216.589 649.66 213.822" fill="#FF725E"/>
<g opacity="0.4">
<path opacity="0.4" d="M558.486 228.723C550.568 237.932 541.054 252.834 540.446 265.069L696.47 264.824C693.127 242.083 672.062 216.589 649.675 213.822" fill="black"/>
</g>
<path d="M603.64 234.056L587.043 239.748L580.113 245.772C579.786 246.093 579.549 246.487 579.424 246.918C579.299 247.348 579.291 247.802 579.399 248.236C579.946 250.485 581.04 254.621 581.663 254.794C582.828 255.011 584.005 255.16 585.189 255.24C585.189 255.24 586.557 257.431 587.347 257.445L588.153 258.887C588.449 259.414 588.943 259.816 589.537 260.013C590.131 260.211 590.781 260.189 591.36 259.953L595.813 258.108C595.813 258.108 596.436 256.927 595.494 256.667C594.274 256.545 593.041 256.693 591.892 257.1C591.892 257.1 590.873 254.779 591.208 254.131C591.473 253.368 591.903 252.667 592.471 252.071C593.039 251.475 593.732 250.999 594.506 250.672C596.512 250.096 608.488 245.34 608.488 245.34L603.64 234.056Z" fill="#FFBE9D"/>
<path d="M584.46 255.183C584.46 255.298 583.593 255.183 582.94 254.174C582.51 253.621 582.242 252.969 582.165 252.286C582.109 251.483 582.18 250.677 582.377 249.894C582.692 247.896 583.516 246.001 584.779 244.374C584.992 244.475 583.852 246.882 583.153 250.052C582.97 250.764 582.883 251.496 582.894 252.228C582.928 252.812 583.105 253.379 583.411 253.886C583.705 254.356 584.057 254.792 584.46 255.183V255.183Z" fill="#EB996E"/>
<path d="M585.402 255.557C585.296 255.557 585.022 255.14 584.794 254.318C584.521 253.243 584.521 252.122 584.794 251.047C585.094 250.008 585.533 249.01 586.101 248.078C586.542 247.372 586.861 246.968 586.952 247.012C587.043 247.055 586.238 248.943 585.569 251.234C585.338 252.664 585.281 254.115 585.402 255.557V255.557Z" fill="#EB996E"/>
<path d="M587.651 258.007C587.22 257.454 586.927 256.815 586.795 256.138C586.664 255.461 586.696 254.765 586.891 254.102C587.042 252.734 587.745 251.474 588.852 250.586C589.049 250.715 588.062 252.2 587.682 254.232C587.573 255.488 587.563 256.75 587.651 258.007V258.007Z" fill="#EB996E"/>
<path d="M590.159 74.7664C585.036 82.7162 583.17 92.1728 584.916 101.341C585.995 106.918 588.426 112.395 587.818 118.044C587.058 125.062 581.648 131.547 582.97 138.494C584.125 144.518 590.098 148.697 596.193 150.729C598.964 151.83 602.025 152.097 604.962 151.493C609.172 150.34 611.908 146.55 614.081 142.846C616.05 139.78 617.361 136.377 617.941 132.83C618.397 128.867 617.288 124.918 616.3 121.041C612.441 105.819 610.402 90.2337 610.221 74.579" fill="#263238"/>
<path d="M651.408 142.341C651.408 142.341 656.15 145.771 659.584 156.421C661.667 162.878 669.311 185.936 673.704 202.178C676.561 212.784 670.664 222.959 660.025 228.118L605.555 248.006L599.126 232.153L642.608 205.06L632.091 168.152C630.373 162.546 629.614 156.839 631.787 151.363C633.96 145.887 642.274 141.289 651.408 142.341Z" fill="#FF725E"/>
<path d="M672.746 215.926C672.693 216.174 672.611 216.416 672.503 216.647C672.259 217.319 671.944 217.966 671.561 218.578C670.153 220.861 668.307 222.875 666.12 224.515C662.908 226.954 659.385 228.997 655.633 230.597C651.438 232.499 646.514 233.897 641.605 235.655C631.635 239.157 622.683 242.573 616.041 244.619C612.728 245.671 609.962 246.435 608.154 246.939L605.98 247.487C605.733 247.578 605.47 247.626 605.205 247.631C605.44 247.517 605.684 247.42 605.935 247.343L608.062 246.666C609.901 246.075 612.622 245.225 615.859 244.115C622.44 241.953 631.331 238.451 641.331 234.949C646.316 233.177 651.18 231.822 655.329 229.963C659.051 228.423 662.558 226.453 665.77 224.097C667.944 222.526 669.816 220.61 671.302 218.434C671.709 217.85 672.06 217.232 672.351 216.589C672.448 216.351 672.581 216.128 672.746 215.926V215.926Z" fill="#263238"/>
<path d="M622.41 126.849C622.41 126.849 646.894 137.283 651.408 142.341C661.439 153.611 654.842 212.511 654.842 212.511L610.874 232.586L588.183 232.586C588.183 232.586 581.982 208.187 576.982 191.917C573.954 182.524 573.954 172.487 576.982 163.094L622.41 126.849Z" fill="#FF725E"/>
<path d="M588.837 77.5189C589.048 74.8618 589.923 72.2905 591.39 70.0176C592.857 67.7447 594.873 65.8355 597.272 64.4478C602.11 61.7017 607.686 60.3497 613.321 60.5567C621.878 60.5567 630.921 63.439 635.906 70.097C639.462 74.8096 640.465 80.7327 641.498 86.454C644.28 102.724 647.061 119.384 643.915 135.597C643.579 138.023 642.709 140.356 641.362 142.442C640.677 143.48 639.718 144.329 638.579 144.906C637.44 145.482 636.162 145.766 634.872 145.728" fill="#263238"/>
<path d="M634.188 71.0194L634.097 75.242L633.2 138.508C633.109 145.858 626.361 151.622 618.002 151.478C609.628 151.305 602.804 145.166 602.804 137.744C602.804 129.962 602.606 121.762 602.606 121.762C602.606 121.762 591.968 120.09 589.825 107.005C588.746 100.491 589.08 89.8119 589.657 81.0642C589.78 79.2022 590.298 77.3829 591.182 75.7158C592.065 74.0487 593.294 72.5682 594.796 71.3633C596.298 70.1584 598.042 69.254 599.922 68.7046C601.802 68.1551 603.78 67.9719 605.737 68.166L634.188 71.0194Z" fill="#FFBE9D"/>
<path d="M593.883 88.5005C593.878 88.9389 594.056 89.3614 594.377 89.6768C594.699 89.9922 595.138 90.1753 595.6 90.1866C595.825 90.2043 596.052 90.1788 596.267 90.1118C596.481 90.0447 596.68 89.9374 596.85 89.7963C597.02 89.6551 597.158 89.483 597.257 89.2901C597.356 89.0972 597.412 88.8875 597.424 88.6734C597.424 88.2346 597.246 87.8126 596.926 87.4957C596.606 87.1788 596.169 86.9914 595.706 86.9729C595.48 86.9572 595.253 86.9846 595.038 87.0533C594.824 87.122 594.625 87.2307 594.456 87.3729C594.286 87.5152 594.148 87.6883 594.049 87.8819C593.951 88.0755 593.894 88.2858 593.883 88.5005Z" fill="#263238"/>
<path d="M592.165 86.6126C592.393 86.8287 593.685 85.892 595.63 85.892C597.576 85.892 598.928 86.7999 599.141 86.5837C599.354 86.3676 599.019 86.0938 598.412 85.6758C597.588 85.1307 596.604 84.8435 595.6 84.8543C594.612 84.8429 593.646 85.1362 592.849 85.6902C592.256 86.1226 592.059 86.5117 592.165 86.6126Z" fill="#263238"/>
<path d="M613.063 88.5005C613.054 88.9376 613.229 89.3601 613.548 89.6759C613.866 89.9917 614.304 90.1753 614.765 90.1866C614.99 90.2043 615.217 90.1788 615.432 90.1118C615.646 90.0447 615.845 89.9374 616.015 89.7963C616.185 89.6551 616.323 89.483 616.422 89.2901C616.52 89.0972 616.577 88.8875 616.589 88.6734C616.589 88.237 616.413 87.8171 616.096 87.5005C615.779 87.184 615.346 86.995 614.886 86.9729C614.66 86.9572 614.433 86.9846 614.219 87.0533C614.004 87.122 613.806 87.2307 613.636 87.3729C613.466 87.5152 613.328 87.6883 613.229 87.8819C613.131 88.0755 613.074 88.2858 613.063 88.5005Z" fill="#263238"/>
<path d="M610.889 86.944C611.117 87.1746 612.409 86.2235 614.354 86.2379C616.3 86.2523 617.668 87.1458 617.865 86.9152C618.063 86.6846 617.744 86.4252 617.136 86.0073C616.31 85.4648 615.328 85.1778 614.324 85.1858C613.334 85.1785 612.368 85.477 611.573 86.0361C610.98 86.454 610.783 86.8575 610.889 86.944Z" fill="#263238"/>
<path d="M603.944 100.347C602.956 100.057 601.936 99.8776 600.904 99.8134C600.418 99.8134 599.947 99.6837 599.871 99.3667C599.82 98.8667 599.931 98.3638 600.19 97.9255C600.661 96.8158 601.132 95.6341 601.634 94.4091C602.972 91.4368 604.054 88.3668 604.871 85.229C603.287 88.0973 601.945 91.0802 600.858 94.1497C600.387 95.3747 599.916 96.5564 599.491 97.6805C599.186 98.2393 599.095 98.881 599.232 99.4964C599.305 99.6577 599.415 99.8012 599.554 99.916C599.694 100.031 599.859 100.114 600.038 100.159C600.304 100.236 600.58 100.275 600.858 100.275C601.879 100.423 602.916 100.447 603.944 100.347V100.347Z" fill="#263238"/>
<path d="M602.667 121.762C609.166 121.852 615.563 120.231 621.148 117.078C621.148 117.078 616.665 126.071 602.91 124.846L602.667 121.762Z" fill="#EB996E"/>
<path d="M614.902 103.157C614.902 103.359 613.64 103.604 612.166 103.157C610.692 102.71 609.841 101.716 609.993 101.557C610.145 101.399 611.117 102.018 612.424 102.451C613.731 102.883 614.902 102.941 614.902 103.157Z" fill="#EB996E"/>
<path d="M605.464 67.748C602.424 72.72 593.867 76.856 588.259 78.9889C588.845 76.4064 589.961 73.9582 591.542 71.7832C593.138 69.5984 595.452 67.9766 598.123 67.1716C599.475 66.7969 602.91 66.4222 603.898 67.3877" fill="#263238"/>
<path d="M602.773 104.929C602.836 104.707 602.965 104.507 603.146 104.353C603.327 104.199 603.552 104.099 603.792 104.065C604.217 103.993 604.643 104.065 605.084 104.065C605.742 103.922 606.392 103.744 607.029 103.532C607.375 103.437 607.745 103.462 608.073 103.601C608.402 103.741 608.667 103.987 608.822 104.295C608.949 104.631 608.994 104.991 608.952 105.345C608.909 105.7 608.782 106.041 608.579 106.342C608.203 106.836 607.671 107.204 607.059 107.394C606.385 107.637 605.668 107.754 604.947 107.74C604.431 107.745 603.93 107.577 603.533 107.264C603.243 106.944 603.046 106.558 602.961 106.143C602.875 105.729 602.905 105.301 603.047 104.901" fill="#EB996E"/>
<path d="M610.221 104.468C609.13 105.42 607.72 105.977 606.239 106.039C604.78 106.323 603.262 106.066 601.998 105.319C601.998 105.102 603.898 105.549 606.147 105.319C608.397 105.088 610.114 104.267 610.221 104.468Z" fill="#263238"/>
<path d="M590.539 149.59C587.906 162.909 586.059 176.356 585.007 189.87C584.718 193.617 582.742 208.792 582.742 208.792L599.217 220.163L595.767 234.056C585.037 232.096 572.073 233.234 561.465 230.799C558.091 230.02 554.489 229.084 552.224 226.591C549.185 223.218 549.504 218.189 550.051 213.75C550.78 207.856 551.708 201.515 556.009 197.191C559.641 193.531 565.234 191.83 568.167 187.694C570.888 183.947 570.857 179.047 571.465 174.551C572.395 167.993 574.833 161.709 578.607 156.143C582.381 150.577 587.399 145.865 593.305 142.341" fill="#FF725E"/>
<path d="M602.667 132.052C602.667 132.052 578.654 156.162 576.982 163.036C575.31 169.91 602.242 180.416 616.497 175.416C630.753 170.415 634.538 163.714 634.173 157.531C633.808 151.349 625.738 132.052 625.738 132.052L602.667 132.052Z" fill="#FFBE9D"/>
<path d="M638.732 83.5285L638.869 84.8543C640.48 101.298 640.875 117.842 641.286 134.358C641.392 138.926 641.286 143.97 638.14 147.328C636.047 149.389 633.285 150.723 630.297 151.118C627.546 151.579 624.4 151.421 622.394 149.59C619.871 147.285 620.16 143.451 620.586 140.151C622.774 123.261 625.86 105.809 625.51 88.8031C625.574 87.5268 625.362 86.2516 624.887 85.0561C624.051 83.2835 620.039 82.6062 618.412 81.4244C613.655 78.0089 607.956 72.6767 606.254 67.2436L628.61 66.8545L636.331 70.6879" fill="#263238"/>
<path d="M583.608 207.452C583.189 207.043 582.822 206.588 582.514 206.098C581.584 204.819 580.742 203.486 579.991 202.106C578.84 200.071 577.855 197.956 577.043 195.779C576.062 193.114 575.32 190.376 574.824 187.593C573.969 182.519 573.887 177.355 574.581 172.26C574.769 170.719 575.043 169.189 575.401 167.677C575.489 167.112 575.653 166.56 575.888 166.034C576.025 166.034 575.523 168.441 575.128 172.317C574.61 177.365 574.768 182.454 575.599 187.464C576.486 192.465 578.129 197.318 580.478 201.875C582.301 205.348 583.73 207.38 583.608 207.452Z" fill="#263238"/>
<path d="M598.412 221.201C598.305 221.273 597.317 219.961 595.509 217.987C593.169 215.409 590.629 213 587.91 210.781C585.189 208.576 582.264 206.609 579.171 204.901C576.8 203.604 575.204 203.013 575.25 202.898C575.653 202.935 576.048 203.032 576.42 203.186C577.462 203.538 578.478 203.957 579.459 204.44C582.673 206.027 585.682 207.962 588.426 210.205C591.215 212.416 593.761 214.888 596.025 217.583C596.987 218.683 597.789 219.9 598.412 221.201V221.201Z" fill="#263238"/>
<path d="M592.621 221.835L598.412 221.143L620.859 229.79C620.859 229.79 619.415 231.433 618.397 231.159C617.612 230.926 616.841 230.651 616.087 230.338C616.087 230.338 626.224 238.033 625.51 239.128C624.796 240.224 622.896 238.855 620.57 238.033C617.694 236.736 614.894 235.293 612.181 233.71C612.181 233.71 623.033 244.014 622.896 245.239C622.759 246.464 621.3 247.3 620.434 246.608C619.567 245.916 617.394 244.417 617.394 244.417C617.394 244.417 616.376 245.931 614.932 245.787C613.883 245.65 612.86 245.374 611.892 244.965C611.892 244.965 608.427 246.608 607.12 245.787C605.813 244.965 594.81 233.969 594.81 233.969L590.022 232.874C590.022 232.874 587.119 223.766 592.621 221.835Z" fill="#FFBE9D"/>
<path d="M608.503 227.542C609.939 227.676 611.335 228.062 612.622 228.68C614.004 229.068 615.301 229.688 616.452 230.51C615.016 230.376 613.62 229.99 612.333 229.372C610.953 228.98 609.656 228.361 608.503 227.542V227.542Z" fill="#EB996E"/>
<path d="M608.047 235.958C609.757 237.197 611.335 238.592 612.759 240.123C614.368 241.477 615.843 242.967 617.166 244.576C613.602 242.238 610.513 239.309 608.047 235.929L608.047 235.958Z" fill="#EB996E"/>
<path d="M606.619 241.766C606.786 241.636 607.789 242.443 609.066 243.38C610.342 244.317 611.406 245.037 611.3 245.225C611.193 245.412 609.901 244.951 608.579 243.971C607.257 242.991 606.467 241.895 606.619 241.766Z" fill="#EB996E"/>
<g opacity="0.2">
<path opacity="0.2" d="M605.464 223.924C606.28 220.216 608.557 216.943 611.832 214.773C614.947 212.467 618.534 210.81 621.802 208.706C625.221 206.764 627.906 203.849 629.477 200.376C630.389 197.941 630.434 195.275 631.316 192.839C632.197 190.404 634.355 188.04 637.137 188.213C637.957 188.313 638.742 188.59 639.432 189.022C640.122 189.454 640.699 190.03 641.119 190.706C641.93 192.066 642.446 193.565 642.638 195.116C643.207 197.543 643.027 200.075 642.122 202.408C640.86 205.074 638.216 206.861 635.678 208.504C626.559 214.456 619.461 219.803 610.281 225.798" fill="black"/>
</g>
<path d="M581.374 206.285C580.472 204.129 579.112 202.173 577.378 200.536C575.645 198.9 573.575 197.619 571.298 196.773C572.051 196.746 572.798 196.9 573.471 197.22C575.143 197.85 576.663 198.796 577.938 200C579.213 201.204 580.217 202.641 580.888 204.224C581.234 204.86 581.402 205.57 581.374 206.285V206.285Z" fill="#263238"/>
<path d="M587.226 202.812C587.226 202.812 586.876 202.48 586.359 201.803C585.634 200.833 584.989 199.812 584.429 198.748C580.628 191.693 579.496 183.614 581.222 175.862C581.485 174.698 581.83 173.552 582.256 172.432C582.56 171.654 582.757 171.222 582.818 171.251C582.879 171.28 582.317 173.038 581.785 175.963C580.368 183.609 581.466 191.483 584.931 198.517C586.299 201.198 587.378 202.74 587.226 202.812Z" fill="#263238"/>
<path d="M595.721 205.132C595.721 205.132 595.433 204.815 595.022 204.152C594.45 203.224 593.942 202.261 593.503 201.27C592.07 197.974 591.183 194.489 590.873 190.937C590.543 187.39 590.799 183.816 591.633 180.344C591.872 179.297 592.187 178.267 592.575 177.26C592.693 176.879 592.867 176.515 593.092 176.179C593.229 176.179 592.682 177.822 592.18 180.503C590.868 187.379 591.513 194.463 594.05 201.025C595.022 203.59 595.843 205.074 595.721 205.132Z" fill="#263238"/>
<path d="M605.205 207.928C605.205 207.928 604.886 207.611 604.4 206.962C603.737 206.047 603.153 205.083 602.652 204.08C601.889 202.574 601.268 201.007 600.798 199.396C600.25 197.418 599.894 195.397 599.734 193.358C599.625 191.312 599.722 189.261 600.023 187.233C600.276 185.582 600.688 183.956 601.254 182.376C601.617 181.309 602.075 180.273 602.621 179.278C603.017 178.572 603.245 178.197 603.29 178.226C603.336 178.255 602.606 179.854 601.77 182.549C599.613 189.59 600.097 197.123 603.138 203.864C604.308 206.4 605.327 207.856 605.205 207.928Z" fill="#263238"/>
<path d="M614.491 205.593C614.491 205.593 614.202 205.305 613.792 204.685C613.217 203.818 612.709 202.913 612.272 201.976C610.758 198.903 609.734 195.635 609.233 192.277C608.735 188.928 608.771 185.528 609.339 182.189C609.491 181.179 609.725 180.182 610.038 179.206C610.251 178.5 610.388 178.125 610.448 178.139C610.509 178.154 610.19 179.725 609.886 182.261C609.079 188.904 610.062 195.633 612.743 201.817C613.792 204.138 614.582 205.536 614.491 205.593Z" fill="#263238"/>
<path d="M596.345 168.498C597.491 169.319 598.293 170.499 598.609 171.827C598.941 172.754 599.07 173.734 598.989 174.71C598.898 175.444 598.685 175.862 598.579 175.834C598.423 174.58 598.18 173.338 597.849 172.115C597.196 170.069 596.162 168.642 596.345 168.498Z" fill="#EB996E"/>
<path d="M607.363 167.778C607.363 167.878 606.74 168.181 605.661 168.642C604.271 169.177 602.955 169.869 601.74 170.703C600.627 171.623 599.767 172.785 599.232 174.09C598.792 175.099 598.7 175.79 598.579 175.776C598.457 175.762 598.366 175.041 598.7 173.917C599.138 172.441 600.02 171.119 601.238 170.112C602.516 169.227 603.945 168.559 605.464 168.138C606.063 167.893 606.71 167.771 607.363 167.778Z" fill="#EB996E"/>
<path d="M685.102 205.838C683.856 202.12 681.105 199.05 679.023 195.75C675.527 190.115 673.855 183.731 672.336 177.376C670.816 171.02 669.615 164.593 666.788 158.641C663.961 152.689 660.177 144.229 653.11 144.748C645.8 145.022 638.474 148.827 633.17 153.597C625.192 160.818 619.497 170.006 616.725 180.128C614.005 190.216 616.725 208.677 620.039 218.578L634.446 209.239C631.656 204.266 630.044 198.774 629.723 193.149C629.403 187.523 630.382 181.899 632.592 176.669C637.152 166.308 647.563 158.093 658.855 154.793C662.715 165.587 666.165 177.116 669.402 187.536C672.229 196.673 675.953 206.271 672.868 215.321C672.077 217.641 668.718 221.374 670.755 222.844C673.354 224.717 677.199 223.708 679.783 221.806C682.243 219.947 684.063 217.436 685.011 214.591C685.958 211.747 685.99 208.7 685.102 205.838Z" fill="#FF725E"/>
<g opacity="0.4">
<path opacity="0.4" d="M685.102 205.838C683.856 202.12 681.105 199.05 679.023 195.75C675.527 190.115 673.855 183.731 672.336 177.376C670.816 171.02 669.615 164.593 666.788 158.641C663.961 152.689 660.177 144.229 653.11 144.748C645.8 145.022 638.474 148.827 633.17 153.597C625.192 160.818 619.497 170.006 616.725 180.128C614.005 190.216 616.725 208.677 620.039 218.578L634.446 209.239C631.656 204.266 630.044 198.774 629.723 193.149C629.403 187.523 630.382 181.899 632.592 176.669C637.152 166.308 647.563 158.093 658.855 154.793C662.715 165.587 666.165 177.116 669.402 187.536C672.229 196.673 675.953 206.271 672.868 215.321C672.077 217.641 668.718 221.374 670.755 222.844C673.354 224.717 677.199 223.708 679.783 221.806C682.243 219.947 684.063 217.436 685.011 214.591C685.958 211.747 685.99 208.7 685.102 205.838Z" fill="black"/>
</g>
<path d="M637.729 173.96C638.007 174.794 638.221 175.647 638.368 176.511C638.778 178.284 639.34 180.633 640.009 183.486C640.678 186.339 641.529 189.928 642.274 193.891C642.608 195.865 642.882 197.941 643.034 200.146C643.173 201.331 642.866 202.526 642.167 203.518C641.393 204.438 640.469 205.235 639.432 205.881C631.604 211.358 624.507 216.272 619.355 219.803L613.275 223.953L611.588 225.049C611.193 225.294 610.981 225.423 610.965 225.394C611.119 225.223 611.292 225.068 611.482 224.933L613.093 223.723L619.081 219.399C624.157 215.753 631.24 210.752 639.021 205.29C639.988 204.692 640.854 203.958 641.59 203.114C642.183 202.265 642.442 201.244 642.319 200.232C642.182 198.085 641.924 196.01 641.62 194.05C640.982 190.115 640.1 186.613 639.523 183.659C638.945 180.705 638.398 178.298 638.124 176.626C637.988 175.79 637.897 175.185 637.836 174.695C637.753 174.458 637.717 174.209 637.729 173.96V173.96Z" fill="#263238"/>
<path d="M654.994 207.539C653.547 205.934 651.801 204.595 649.842 203.59C647.784 202.794 645.59 202.359 643.368 202.307C643.988 202.01 644.681 201.876 645.374 201.918C647.039 201.893 648.688 202.234 650.192 202.913C651.694 203.574 653.012 204.561 654.037 205.795C654.812 206.789 655.07 207.495 654.994 207.539Z" fill="#263238"/>
<path d="M663.323 151.839C662.392 151.315 661.357 150.977 660.283 150.844C657.278 150.749 654.311 151.501 651.757 153.006C647.872 155.085 644.294 157.644 641.118 160.615C637.129 164.161 633.686 168.221 630.89 172.677C628.337 177.255 626.816 182.285 626.422 187.449C626.061 191.668 626.338 195.914 627.242 200.059C627.856 202.855 628.741 205.59 629.887 208.23C630.692 210.118 631.224 211.113 631.164 211.113C630.985 210.897 630.836 210.659 630.723 210.407C630.313 209.725 629.942 209.022 629.613 208.302C628.342 205.683 627.364 202.944 626.695 200.131C625.706 195.939 625.368 191.633 625.692 187.348C626.074 182.075 627.628 176.938 630.252 172.274C633.08 167.748 636.587 163.637 640.663 160.067C643.907 157.08 647.568 154.529 651.544 152.487C654.201 150.977 657.287 150.287 660.375 150.513C660.851 150.579 661.32 150.69 661.773 150.844C662.096 150.975 662.411 151.125 662.715 151.291C662.937 151.453 663.141 151.636 663.323 151.839V151.839Z" fill="#263238"/>
<path d="M660.071 147.112C660.071 147.112 658.779 147.328 656.484 147.789C653.262 148.461 650.135 149.492 647.167 150.859C642.758 152.887 638.72 155.573 635.206 158.814C630.909 162.774 627.407 167.442 624.872 172.591C622.419 177.785 620.879 183.325 620.312 188.991C619.839 193.618 619.946 198.281 620.631 202.884C621.074 205.995 621.749 209.072 622.653 212.093C622.941 213.174 623.245 213.981 623.413 214.543C623.522 214.826 623.593 215.121 623.625 215.422C623.475 215.16 623.353 214.885 623.261 214.6C623.048 214.053 622.683 213.246 622.349 212.179C619.816 204.675 618.876 196.77 619.583 188.919C620.113 183.173 621.654 177.552 624.142 172.288C626.702 167.046 630.28 162.309 634.69 158.324C638.256 155.063 642.364 152.38 646.848 150.383C649.868 149.033 653.062 148.064 656.347 147.501C657.242 147.34 658.145 147.225 659.052 147.155C659.388 147.096 659.731 147.081 660.071 147.112V147.112Z" fill="#263238"/>
<g opacity="0.2">
<path opacity="0.2" d="M580.159 205.132C577.499 203.691 574.794 201.414 572.134 200.03C571.502 199.748 570.934 199.352 570.462 198.863C570.177 198.614 569.996 198.278 569.949 197.913C569.903 197.549 569.995 197.181 570.21 196.875C570.424 196.57 570.746 196.347 571.118 196.246C571.491 196.145 571.888 196.174 572.24 196.327C572.999 196.565 573.69 196.964 574.262 197.494C573.116 195.413 572.336 193.169 571.952 190.85C571.8 190.014 571.952 188.876 572.787 188.66C573.623 188.444 574.307 189.438 574.672 190.259C576.693 195.188 580.174 202.077 582.636 206.588" fill="black"/>
</g>
</svg>
